<?xml version="1.0" encoding="UTF-8" standalone="no"?>
<!-- Created with Inkscape (http://www.inkscape.org/) -->

<svg
   version="1.1"
   id="svg2"
   width="6666.6665"
   height="6666.6665"
   viewBox="0 0 6666.6665 6666.6665"
   sodipodi:docname="25654926_coffee_logo.eps"
   xmlns:inkscape="http://www.inkscape.org/namespaces/inkscape"
   xmlns:sodipodi="http://sodipodi.sourceforge.net/DTD/sodipodi-0.dtd"
   xmlns="http://www.w3.org/2000/svg"
   xmlns:svg="http://www.w3.org/2000/svg">
  <defs
     id="defs6" />
  <sodipodi:namedview
     id="namedview4"
     pagecolor="#ffffff"
     bordercolor="#000000"
     borderopacity="0.25"
     inkscape:showpageshadow="2"
     inkscape:pageopacity="0.0"
     inkscape:pagecheckerboard="0"
     inkscape:deskcolor="#d1d1d1" />
  <g
     id="g8"
     inkscape:groupmode="layer"
     inkscape:label="ink_ext_XXXXXX"
     transform="matrix(1.3333333,0,0,-1.3333333,0,6666.6667)">
    <g
       id="g10"
       transform="scale(0.1)">
      <path
         d="M 50000,0 H 0 V 50000 H 50000 V 0"
         style="fill:#71aa76;fill-opacity:1;fill-rule:nonzero;stroke:none"
         id="path12" />
      <path
         d="m 40044.3,25000 c 0,-8308.8 -6735.5,-15044.3 -15044.3,-15044.3 -8308.8,0 -15044.34,6735.5 -15044.34,15044.3 0,8308.8 6735.54,15044.3 15044.34,15044.3 8308.8,0 15044.3,-6735.5 15044.3,-15044.3"
         style="fill:#ffffff;fill-opacity:1;fill-rule:nonzero;stroke:none"
         id="path14" />
      <path
         d="m 33538.2,25000 c 0,-4740.9 -3843.2,-8584.1 -8584.1,-8584.1 -4740.9,0 -8584.1,3843.2 -8584.1,8584.1 0,4740.9 3843.2,8584.1 8584.1,8584.1 4740.9,0 8584.1,-3843.2 8584.1,-8584.1"
         style="fill:#59361e;fill-opacity:1;fill-rule:nonzero;stroke:none"
         id="path16" />
      <path
         d="m 25000,15113.7 c -5460,0 -9886.4,4426.2 -9886.4,9886.4 0,5460 4426.4,9886.2 9886.4,9886.2 5460,0 9886.5,-4426.2 9886.5,-9886.2 0,-5460.2 -4426.5,-9886.4 -9886.5,-9886.4 z m 0,23577.1 c -7561.2,0 -13690.9,-6129.5 -13690.9,-13690.7 0,-7561.4 6129.7,-13690.9 13690.9,-13690.9 7561.2,0 13691,6129.5 13691,13690.9 0,7561.2 -6129.8,13690.7 -13691,13690.7"
         style="fill:#82bf73;fill-opacity:1;fill-rule:nonzero;stroke:none"
         id="path18" />
      <path
         d="m 13153.4,20224.1 -298.8,821.3 128,46.5 22.8,-62.6 c 20.4,-56 41.4,-93.9 63.2,-113.7 21.8,-19.7 45.5,-28.2 71.2,-25.4 25.6,2.8 64.2,13.5 115.8,32.3 l 1037.3,377.3 c 52.4,19.1 89.4,37.8 110.9,56.2 21.4,18.4 31.7,44.3 30.6,77.6 -1,33.3 -13.5,82.9 -37.4,148.6 l -17,46.7 122.6,44.6 c 75.4,-143.7 133.2,-242.9 173.3,-297.8 40,-54.8 87.1,-101.1 141.1,-138.9 l 45.6,-125.3 -1499.9,-545.6 c -62.3,-22.6 -101.7,-49 -118.4,-79.3 -16.7,-30.2 -13.6,-76.8 9.4,-140 l 27.7,-75.9 -128,-46.6"
         style="fill:#59361e;fill-opacity:1;fill-rule:nonzero;stroke:none"
         id="path20" />
      <path
         d="m 14597.1,19354.4 166.5,85.8 c 124.4,64.1 223.7,121.3 297.8,171.7 74,50.4 128.3,106 163,166.9 34.5,60.9 34.5,125 -0.1,192.3 -36.8,71.4 -92,109.3 -165.4,113.5 -73.5,4.2 -162.4,-15.3 -266.7,-58.4 -104.5,-43.1 -249.1,-112.4 -434.1,-207.6 -179.1,-92.3 -316.8,-168.5 -412.9,-228.6 -96.2,-60.2 -164.9,-121.9 -206.2,-185.2 -41.4,-63.3 -43.6,-130.7 -6.8,-202.2 27.3,-53 66.4,-87.1 117.3,-102.3 51,-15.3 109.5,-14.9 175.8,1.1 66.2,16 133.1,39 200.6,69 67.5,30 158.5,74.5 272.8,133.4 z m 159.6,-347 c -121,-62.4 -226.8,-107.5 -317.2,-135.5 -90.4,-27.9 -171.7,-42.7 -243.8,-44.1 -72.1,-1.5 -141.2,6.2 -207.4,23.2 -176.5,45.3 -302.7,141.5 -378.4,288.6 -32.5,63.1 -52.4,134.7 -59.7,215 -7.3,80.3 5.6,165.2 38.8,254.6 33.2,89.4 94.7,179.6 184.6,270.6 89.8,91 211.3,175.8 364.3,254.7 137.9,71 257.3,122.7 358.3,155 100.9,32.3 179.9,49.8 237,52.6 57,2.8 116.9,0.1 179.6,-8 201.3,-29.3 345.9,-129.3 433.8,-300 90.1,-174.9 87.5,-350.7 -7.6,-527.4 -39.3,-78.7 -99.7,-157.7 -181.2,-236.9 -81.6,-79.3 -215.3,-166.7 -401.1,-262.4"
         style="fill:#59361e;fill-opacity:1;fill-rule:nonzero;stroke:none"
         id="path22" />
      <path
         d="m 15389.7,18092.3 154.4,106 c 115.4,79.2 206.6,148.5 273.8,207.7 67.1,59.3 114,121.3 140.7,186.1 26.7,64.8 18.6,128.4 -24.2,190.7 -45.5,66.3 -105,96.9 -178.4,91.9 -73.4,-5.1 -159.1,-35.6 -257.3,-91.5 -98.1,-55.9 -233,-142.7 -404.5,-260.5 -166.1,-114 -293.1,-206.9 -380.9,-278.6 -87.8,-71.8 -148.3,-141.7 -181.3,-209.7 -33.1,-68 -26.8,-135.1 18.7,-201.4 33.7,-49.1 76.8,-78.1 129.2,-86.8 52.5,-8.7 110.5,-1 174.2,23.2 63.7,24.2 127.2,55.5 190.4,93.7 63.2,38.2 147.9,93.7 253.9,166.6 z m 201.9,-324.3 c -112.3,-77.1 -211.5,-135.1 -297.7,-174.2 -86.2,-39.1 -164.9,-63.9 -236.3,-74.5 -71.3,-10.5 -140.9,-11.5 -208.7,-3 -180.8,22.8 -318,102.4 -411.7,238.8 -40.1,58.5 -68.9,127.1 -86.2,205.8 -17.4,78.8 -15.2,164.6 6.5,257.5 21.7,92.9 71.4,190.1 149.1,291.6 77.8,101.5 187.6,201 329.5,298.5 127.9,87.7 239.9,154 335.9,198.7 96.1,44.7 172.3,72.1 228.5,82 56.3,9.9 116,14.8 179.3,14.6 203.3,-3.8 359.4,-84.8 468,-243.1 111.4,-162.2 130.9,-336.9 58.7,-524.2 -29.1,-83 -79.1,-168.9 -150,-257.8 -70.9,-88.8 -192.6,-192.4 -364.9,-310.7"
         style="fill:#59361e;fill-opacity:1;fill-rule:nonzero;stroke:none"
         id="path24" />
      <path
         d="m 16730.2,15880.7 c 74.7,72.4 131.9,132.7 171.4,180.9 39.5,48.2 62.4,88.9 68.6,121.9 6.2,33 -4.5,63.7 -32.2,92.3 -24.3,25.1 -52.4,36.4 -84.2,33.9 -31.9,-2.5 -72.6,-22 -122.3,-58.3 -49.8,-36.4 -113.3,-92.1 -190.7,-167.1 -103.9,-100.8 -174.7,-180.6 -212.4,-239.5 -37.7,-59 -35.5,-110.2 6.6,-153.7 28.3,-29.1 60.9,-40 97.8,-32.6 36.9,7.5 78.1,29.2 123.5,65.3 45.3,36.1 103.3,88.4 173.9,156.9 z m 173.7,-187.3 c -95,-92.2 -183.9,-148.7 -266.5,-169.5 -82.5,-20.8 -153.3,-19.2 -212.1,4.8 -58.8,24 -109.6,58.1 -152.4,102.2 -40.8,42.1 -72.3,93.9 -94.4,155.5 -22.1,61.5 -22.6,132.6 -1.2,213.2 21.3,80.6 76.1,163.7 164.3,249.3 36.7,35.5 75.8,69.2 117.5,101 41.6,31.8 92.5,59.4 152.8,82.9 60.2,23.5 123.8,29.9 190.9,19.1 67,-10.7 132.8,-49.3 197.4,-115.9 117.1,-120.9 151.1,-238.1 101.9,-351.7 -49.3,-113.6 -115.3,-210.6 -198.2,-290.9 z m -412.3,1752.1 c 74.7,72.4 131.8,132.7 171.3,180.9 39.6,48.2 62.4,88.9 68.6,121.9 6.2,33 -4.5,63.8 -32.2,92.3 -24.3,25.1 -52.2,36.6 -83.7,34.4 -31.5,-2.2 -71.9,-21 -121.3,-56.3 -49.4,-35.4 -113.8,-91.6 -193.2,-168.6 -71.3,-69.1 -125,-124.8 -161.1,-167.1 -36.1,-42.2 -59.8,-83 -71.1,-122.3 -11.3,-39.2 -2.2,-74.2 27.5,-104.7 28.3,-29.2 60.9,-40.1 97.8,-32.6 36.9,7.4 78,29.2 123.4,65.3 45.3,36 103.3,88.3 174,156.8 z m 173.7,-187.3 c -95.1,-92.2 -183.9,-148.7 -266.5,-169.4 -82.6,-20.8 -153.3,-19.3 -212.1,4.7 -58.9,24 -109.7,58.1 -152.5,102.2 -41.5,42.8 -73.1,94.8 -94.9,156 -21.8,61.2 -22,132.1 -0.7,212.7 21.3,80.6 76.1,163.7 164.4,249.3 91,88.2 194.2,155.4 309.6,201.4 115.4,46 232,8.3 349.9,-113.3 117.2,-120.8 151,-238.2 101.4,-352.2 -49.6,-113.9 -115.8,-211.1 -198.6,-291.4 z m 962.8,-216.6 -2161.3,-662.8 -115.6,119.2 2161.3,662.8 115.6,-119.2"
         style="fill:#59361e;fill-opacity:1;fill-rule:nonzero;stroke:none"
         id="path26" />
      <path
         d="m 19687,14943.6 -113.1,70.6 c 36.5,103.2 51.1,186 43.9,248.5 -7.3,62.5 -28.6,111.5 -63.9,146.9 -35.3,35.4 -89.9,76.2 -163.7,122.2 l -291.2,181.8 -359.8,-576.5 152.8,-95.4 c 72.2,-45 128.9,-63.2 170.1,-54.3 41.2,8.8 90.8,54.3 148.7,136.3 l 110.7,-69.1 -338.8,-542.8 -113.1,70.6 c 35,65.1 55.7,114.7 61.9,148.7 6.1,34.1 -0.5,64.5 -20.1,91.1 -19.6,26.7 -55.4,56.4 -107.6,88.9 l -148,92.4 -302.7,-485 c -41.1,-65.8 -58.4,-122.5 -51.8,-170 6.5,-47.6 58.8,-101.9 156.7,-163 l 33.7,-21.1 -69.2,-110.7 -837.6,522.8 69.1,110.7 c 99.5,-62.1 172.6,-87.4 219.4,-75.8 46.7,11.5 91.9,52.1 135.5,121.9 l 639.9,1025.4 c 29.1,46.6 46.9,85.9 53.6,118 6.6,32 -2.5,66.2 -27.3,102.3 -24.9,36.1 -71.8,75.7 -140.8,118.8 l 69.1,110.7 1336,-833.8 -252.4,-431.1"
         style="fill:#59361e;fill-opacity:1;fill-rule:nonzero;stroke:none"
         id="path28" />
      <path
         d="m 20959.7,14378.3 c 58.2,141.7 53.7,253.4 -13.5,335.2 -67.2,81.7 -170.3,151.1 -309.4,208.2 -19.3,7.9 -34.5,13.9 -45.6,17.9 -11.1,4.1 -23.7,9 -37.7,14.7 l -293.4,-715.3 82.6,-33.9 c 132.2,-54.2 251.9,-78.3 359.2,-72.2 107.2,6.1 193.2,87.9 257.8,245.4 z m 201.9,-1608.6 -476.5,195.4 c -9.6,26.4 -19.8,63.3 -30.5,110.7 -10.7,47.3 -21.3,102 -31.6,164 -10.4,62 -18.9,113.3 -25.8,153.9 l -38.9,249.1 c -17.6,111.5 -33.5,189.3 -47.6,233.4 -14.1,44.2 -37,78.1 -68.6,101.8 -31.7,23.7 -90,53 -174.9,87.8 l -66.9,27.5 -190.6,-464.6 c -20.1,-49.1 -31,-90.6 -32.7,-124.6 -1.8,-34.1 13.6,-67 46.1,-98.7 32.5,-31.7 85.9,-62.9 160.3,-93.4 l -49.5,-120.7 -892.6,366.2 49.6,120.7 c 108.5,-44.5 184.7,-57.4 228.7,-38.6 44,18.7 81.8,66.6 113.4,143.6 l 460.9,1123.5 c 31.2,76.2 38.3,136.4 21.2,180.7 -17.1,44.3 -80.7,89.1 -191,134.4 l 50.6,123.3 417.6,-155.9 c 32.2,-11.2 68.8,-24.7 109.9,-40.5 41,-15.8 79,-30.9 114,-45.3 27.2,-11.1 71.9,-30.5 134.2,-58.1 87.2,-38.9 167.8,-78 241.6,-117.5 73.7,-39.4 130.4,-74.5 170,-105 58.8,-43.6 109.9,-96.7 153.1,-159.5 43.3,-62.7 70.6,-133.2 82,-211.4 11.3,-78.3 -0.1,-159 -34.2,-242.1 -24.4,-59.5 -61,-112 -109.8,-157.4 -48.8,-45.4 -110.8,-78.2 -186.1,-98.5 -75.2,-20.2 -164.9,-23.8 -268.9,-10.8 48.4,-63.8 83.6,-132.7 105.4,-206.5 21.8,-73.9 49.9,-204.8 84.2,-392.7 20.4,-107.5 39.5,-190.2 57.7,-248.3 18.1,-58 39.1,-100.9 63,-128.5 23.9,-27.8 58.1,-53.3 102.7,-76.7 l -49.5,-120.7"
         style="fill:#59361e;fill-opacity:1;fill-rule:nonzero;stroke:none"
         id="path30" />
      <path
         d="m 23240.1,13310.2 c 21.6,105.6 33,207.5 34.2,305.7 1.2,98.3 -13.1,190.2 -42.9,275.9 -29.9,85.7 -79.6,159.1 -149.1,220.1 -69.7,61 -162.4,103.4 -278.2,127 -159.4,32.5 -291.9,18.3 -397.5,-42.7 -105.6,-61 -186.5,-147.8 -242.8,-260.3 -56.3,-112.6 -98.8,-239.3 -127.5,-380.2 -15.9,-77.8 -27.3,-159.9 -34.3,-246.3 -7.1,-86.5 -0.1,-177.9 20.8,-274.3 20.8,-96.5 67.7,-183.7 140.6,-261.8 72.8,-78.1 176.9,-131 312.2,-158.6 134.4,-27.4 249.9,-18.4 346.5,27.1 96.6,45.4 173.4,109.4 230.3,191.9 56.9,82.5 98.6,164 125.2,244.5 26.5,80.5 47.4,157.8 62.5,232 z m 449.3,-97.5 c -35,-171.4 -108.6,-323.7 -220.6,-456.7 -112.1,-133 -257.3,-228.4 -435.6,-286.2 -178.3,-57.7 -376.3,-64.4 -594.1,-19.9 -177.9,36.3 -328.7,97 -452.3,182 -123.6,85.1 -218.4,184.5 -284.4,298.4 -66.1,113.9 -108,232.5 -125.8,355.8 -17.8,123.3 -14.9,242.9 8.8,358.8 34.2,167.7 105.9,318.1 215.1,451.2 109.2,133.2 252.4,229.2 429.5,288.2 177,58.9 375.9,65.9 596.4,20.9 201.1,-41 365.4,-108.8 492.8,-203.3 127.5,-94.6 220.4,-199.9 278.7,-316.1 58.4,-116.1 93.2,-232.6 104.7,-349.3 11.4,-116.7 7,-224.6 -13.2,-323.8"
         style="fill:#59361e;fill-opacity:1;fill-rule:nonzero;stroke:none"
         id="path32" />
      <path
         d="m 26662.7,12263 -964.4,-23.3 -3.2,130.4 c 83.2,2.1 144,11.8 182.4,29.3 38.3,17.5 63,42.2 74.1,74.2 11.1,31.9 15.9,75.3 14.6,130.2 l -29.1,1205.5 -688.4,-1580.5 -86.5,-2.1 -773.9,1545.2 27.7,-1144.5 c 1.4,-60.6 4.7,-106.9 9.7,-138.9 5,-32 16.5,-59.2 34.6,-81.5 18,-22.2 46.1,-38.4 84.2,-48.3 38.1,-10 90.7,-14.1 157.8,-12.5 l 3.2,-130.5 -712,-17.2 -3.2,130.5 c 68.1,1.6 120.7,8.6 157.8,20.8 37,12.3 63.8,29.9 80.3,53.1 16.5,23 26.2,50.5 29.2,82.3 3,31.7 3.8,77.9 2.3,138.4 l -26.3,1089.2 c -1.9,81.3 -7.6,139.9 -17,175.6 -9.3,35.7 -33.4,62.3 -72.1,79.8 -38.8,17.6 -103.5,25.2 -194.3,23 l -3.2,130.5 703.5,17 671,-1341.9 606.9,1372.8 687.9,16.6 3.1,-130.5 c -118.2,-2.9 -194.1,-22 -227.8,-57.3 -33.7,-35.4 -49.5,-94.2 -47.5,-176.4 l 29.2,-1208.4 c 1.2,-52 7.9,-94 20,-125.8 12.1,-31.9 39,-56.1 80.5,-72.6 41.6,-16.5 103.5,-23.7 185.8,-21.8 l 3.1,-130.4"
         style="fill:#59361e;fill-opacity:1;fill-rule:nonzero;stroke:none"
         id="path34" />
      <path
         d="m 29320.7,14841.6 c -87.5,-27.5 -147.4,-56 -179.8,-85.5 -32.3,-29.6 -47.6,-62.9 -45.9,-100 1.8,-37.1 14.9,-94.5 39.3,-172.1 l 457.6,-1454.8 -124.4,-39.1 -1649.2,1048.7 318,-1010.9 c 24.2,-76.7 46.4,-130.9 66.8,-162.7 20.4,-31.7 52.9,-50.8 97.6,-57 44.6,-6.3 110.2,4.1 196.8,31.4 l 39.2,-124.5 -682.1,-214.6 -39.2,124.5 c 81.2,25.6 137.2,53.3 167.9,83.3 30.7,30 44.9,63.7 42.5,101.1 -2.3,37.5 -15.5,94.5 -39.7,171.2 l -294.6,936.5 c -23.8,75.8 -43.7,132 -59.7,168.6 -16,36.6 -36.1,66.7 -60.4,90.3 -24.3,23.6 -56.6,38.8 -96.8,45.4 -40.3,6.7 -92.1,3.5 -155.4,-9.5 l -39.2,124.6 534.6,168.1 1433,-905.5 -263.5,837.7 c -21.6,68.5 -42.9,119.6 -63.9,153.2 -20.9,33.5 -53.3,54.3 -96.9,62.4 -43.7,8.1 -106.2,-0.7 -187.4,-26.2 l -39.1,124.5 684.7,215.5 39.2,-124.6"
         style="fill:#59361e;fill-opacity:1;fill-rule:nonzero;stroke:none"
         id="path36" />
      <path
         d="m 30743,14344 -546.9,470.6 88.5,-711.5 z m 1063.3,-205.8 -802.5,-421.7 -60.7,115.6 c 67.8,35.6 114.7,66.4 140.6,92.3 25.9,25.9 29.4,56.8 10.5,92.9 -13.2,25.1 -31.6,48 -55.3,68.6 l -186,158.8 -552.6,-290.4 16.6,-132.3 c 9.1,-74.3 21,-125.2 35.5,-152.8 26.4,-50.3 62.6,-71.9 108.5,-64.8 46,7 94.9,24.2 146.8,51.5 l 60.7,-115.5 -586.5,-308.2 -60.7,115.6 c 46.9,24.6 82.1,54.3 105.5,89 23.4,34.8 37.1,84.4 41.1,149 4,64.6 -0.4,150.7 -13.1,258.3 l -184.7,1544.1 119.4,62.7 1215.5,-1053.7 c 86.9,-74 147.9,-122.9 182.8,-146.8 35,-23.8 72.7,-36.6 113.1,-38.3 40.4,-1.7 88.7,12.1 144.8,41.6 l 60.7,-115.5"
         style="fill:#59361e;fill-opacity:1;fill-rule:nonzero;stroke:none"
         id="path38" />
      <path
         d="m 32639.2,16480.5 -107.5,-81.3 c -81.7,87.6 -155.7,141.9 -222,162.9 -66.3,21 -122,22.7 -166.9,5.4 -44.9,-17.5 -91.5,-44.4 -139.8,-81 l -194.6,-147.2 850.2,-1123.4 c 33.6,-44.5 64.3,-75.6 91.9,-93.2 27.6,-17.7 63.1,-20.7 106.6,-9.2 43.4,11.5 97.2,41.6 161.3,90.1 l 78.8,-104.1 -769.3,-582.1 -78.8,104 c 94.3,71.4 144.7,130.9 151.3,178.6 6.7,47.7 -15.2,104.7 -65.4,171.1 l -850.1,1123.4 -162.9,-123.4 c -64.2,-48.5 -113.5,-93.8 -148,-135.9 -34.5,-42.2 -50.5,-98.2 -48.1,-168.1 2.5,-69.9 37.5,-154 104.8,-252.5 l -107.4,-81.3 -329.6,435.5 1515.9,1147.2 329.6,-435.5"
         style="fill:#59361e;fill-opacity:1;fill-rule:nonzero;stroke:none"
         id="path40" />
      <path
         d="m 33821.9,18364.2 c -58.1,-63.5 -92.4,-115.8 -102.9,-156.8 -10.6,-40.9 -5.1,-77 16.4,-108.2 21.4,-31.2 60.5,-72.6 117,-124.3 l 523.6,-478.6 c 96.3,-88 165.7,-157.6 208.2,-208.5 42.4,-51 75.4,-113.5 98.8,-187.4 47.1,-140.5 45.1,-274.8 -6,-402.9 -51.2,-128.2 -117,-236.3 -197.4,-324.2 -59.3,-64.9 -129,-124 -208.9,-177.1 -80,-53.1 -166.6,-91.5 -260,-115.1 -93.3,-23.6 -185.8,-21.7 -277.4,5.6 -50.2,15.2 -97.1,34.3 -140.6,57.5 -43.6,23.1 -81.7,48 -114.4,74.7 -32.6,26.6 -74.1,62.9 -124.3,108.9 l -593.6,538.7 c -61.4,56.1 -115.7,83.7 -162.9,82.6 -47.1,-1.2 -111.2,-46.1 -192.3,-134.7 l -96.3,88.1 654.7,716.2 96.4,-88 c -55.5,-60.8 -90.9,-111.8 -106.1,-152.9 -15.3,-41.2 -15.7,-76.7 -1.3,-106.5 14.4,-29.9 42.6,-63.9 84.4,-102.2 l 591.7,-540.8 c 60.7,-55.5 116.7,-101.2 167.8,-137.1 51.1,-35.8 99.6,-63.1 145.3,-81.8 78.2,-28 160.3,-29 246.1,-3 85.9,25.9 160.1,73.1 222.6,141.5 67,73.3 111.4,158 133.2,254 21.8,96.1 15.3,182.5 -19.6,259.2 -26.9,60.4 -61.5,115.4 -103.8,165.1 -42.5,49.6 -96.8,104.8 -163.1,165.4 l -511,467.1 c -46.1,42.1 -81.6,72 -106.5,89.6 -24.9,17.6 -51.6,28 -80.2,31.1 -28.6,3 -60,-6.4 -94.1,-28.4 -34.2,-21.9 -74.6,-58.4 -121.1,-109.3 l -96.4,88 477.7,522.5 96.3,-88"
         style="fill:#59361e;fill-opacity:1;fill-rule:nonzero;stroke:none"
         id="path42" />
      <path
         d="m 34830.1,19272.3 c -130.3,80.5 -241.3,94.4 -332.9,41.5 -91.7,-52.9 -177,-143.3 -256.1,-271.2 -10.9,-17.7 -19.3,-31.7 -25.1,-42 -5.8,-10.4 -12.7,-21.9 -20.7,-34.8 l 657.7,-406.6 47,76.1 c 75.1,121.4 118.5,235.6 130,342.5 11.6,106.8 -55.1,205 -199.9,294.5 z m 1620,-64 -270.8,-438.1 c -27.6,-5.2 -65.7,-9.2 -114.2,-12 -48.4,-2.8 -104.1,-4.3 -167,-4.3 -62.8,-0.1 -114.8,-0.2 -156,-0.3 l -252.1,2.4 c -112.9,0.8 -192.3,-2.1 -238.1,-8.8 -45.8,-6.7 -83,-23.7 -111.6,-51.1 -28.6,-27.4 -67,-80.1 -115.3,-158.1 l -38,-61.5 427.2,-264.1 c 45.1,-27.8 84.3,-45.4 117.6,-52.7 33.3,-7.2 68.2,2.6 104.9,29.4 36.6,26.9 76,74.5 118.3,142.9 l 111,-68.6 -507.2,-820.6 -111.1,68.6 c 61.7,99.7 86.9,172.8 75.6,219.3 -11.3,46.5 -52.4,91.6 -123.2,135.4 l -1033,638.5 c -70,43.2 -128.2,60.1 -174.8,50.5 -46.5,-9.6 -101.1,-65.1 -163.7,-166.5 l -113.5,70.1 222.2,386.4 c 16.3,29.9 35.6,63.9 57.9,101.8 22.3,37.9 43.4,72.9 63.3,105.1 15.4,25 41.8,65.9 79.3,122.8 52.6,79.8 104.4,152.8 155.4,219.2 51,66.3 94.9,116.5 131.5,150.6 52.6,50.9 113.3,92.5 182.3,124.9 69,32.4 143,47.9 222,46.3 79.1,-1.7 156.8,-26.1 233.3,-73.3 54.7,-33.9 100.4,-78.6 137.3,-134.1 36.8,-55.6 59,-122.1 66.7,-199.7 7.6,-77.6 -3.5,-166.6 -33.4,-267.1 70.9,37.4 144.6,60.8 221.1,70.2 76.4,9.5 210.1,15.8 401.1,18.9 109.4,2.5 194.1,7.9 254.4,16.3 60.2,8.3 105.9,22 137.1,41.1 31.3,19.1 62.1,48.6 92.4,88.8 l 111.1,-68.6"
         style="fill:#59361e;fill-opacity:1;fill-rule:nonzero;stroke:none"
         id="path44" />
      <path
         d="m 36614.9,21317.5 582.5,-247.5 -631.2,-1593.3 -121.4,48 c 43.6,109.9 55.8,187 36.7,231.2 -19.2,44.2 -67.4,81.6 -144.8,112.3 l -1123.8,445.1 c -50.9,20.2 -92.7,30.9 -125.3,32.2 -32.6,1.2 -64.4,-13.7 -95.5,-44.6 -31.1,-30.9 -62.1,-85.5 -93.1,-163.8 l -121.4,48.1 587.9,1483.8 473.7,-160.1 -48.1,-121.4 c -113.7,13.5 -199.8,11.2 -258.3,-6.8 -58.5,-18 -101.6,-47.2 -129.4,-87.6 -27.6,-40.4 -59.1,-105 -94.3,-193.8 l -132.7,-335 631.8,-250.3 72.1,182 c 24.7,62.4 37.7,111.2 38.9,146.3 1.2,35.1 -11.1,65 -37,89.5 -25.9,24.5 -71,52 -135.2,82.5 l 50.2,126.7 594.8,-235.7 -48.1,-121.3 c -67.3,22.6 -119.3,33 -156.2,31.3 -36.7,-1.7 -66.4,-15.6 -89,-41.8 -22.6,-26.1 -46.2,-70.4 -70.9,-132.9 l -73.2,-184.6 420.8,-166.7 c 70.3,-27.9 122.5,-46.5 156.4,-55.9 33.9,-9.4 64.7,-10.6 92.3,-3.7 27.7,6.8 53.2,25.7 76.6,56.6 23.5,30.9 47.9,78.4 73.3,142.6 l 57,143.8 c 24,60.7 39.2,121.5 45.6,182.6 6.4,61 -11.8,130.6 -54.7,208.6 -42.8,78 -128.2,154.5 -256.2,229.7 l 49.2,123.9"
         style="fill:#59361e;fill-opacity:1;fill-rule:nonzero;stroke:none"
         id="path46" />
      <path
         d="m 29829.2,25931.7 -0.1,-4293.2 c 0,-2894 -2346.1,-5240.2 -5240.1,-5240.2 h -0.2 l 0.2,4293.2 c 0,2894.2 2346,5240.2 5240.1,5240.2 h 0.1"
         style="fill:#82bf73;fill-opacity:1;fill-rule:nonzero;stroke:none"
         id="path48" />
      <path
         d="m 19550.3,25931.7 0.1,-4293.2 c 0,-2894 2346.1,-5240.2 5240.1,-5240.2 h 0.2 l -0.2,4293.2 c 0,2894.2 -2346,5240.2 -5240.1,5240.2 h -0.1"
         style="fill:#59361e;fill-opacity:1;fill-rule:nonzero;stroke:none"
         id="path50" />
      <path
         d="m 30092.6,20689.5 c 53.5,310.4 80.8,627.6 80.8,949 l 0.1,3991.3 c 1235,-142.1 2197.2,-1193.8 2197.2,-2466.2 0,-1300 -1004.5,-2369.7 -2278.1,-2474.1 z m -490.1,949 c 0,-2400.9 -1716.4,-4408.1 -3986.7,-4859.5 31.5,31.7 62.8,63.1 92.9,92.8 82.6,92.2 173.8,191.9 255,284.6 l 159.7,197.6 c 89.5,107.9 181.3,242.6 264.9,355.3 65.3,99.3 181.1,268.2 240,370.6 32.2,53.7 96.4,162.4 128.5,216.2 508.6,903.1 839.1,1899.3 1018.9,2916.9 111.3,644.3 174.5,1297.2 153.6,1950.6 -68.5,-1046.8 -322.5,-2081.6 -713.9,-3052.6 -418.6,-1020.2 -1027.9,-1976.5 -1847.7,-2719.4 -108.7,-103.5 -239,-206.1 -353.6,-301.7 -19.4,-14.4 -48.4,-36 -80.9,-60.1 l 0.1,3661.7 c 0,2636.3 2069.6,4798.4 4669.4,4946.6 z m -9909.4,0 v 3999.6 c 2599.8,-148.2 4669.2,-2310.3 4669.2,-4946.6 v -3661.4 c -33.1,24.8 -62.4,46.5 -80.8,59.8 -114.6,95.6 -245.1,198.4 -353.6,301.7 -819.7,742.9 -1429.1,1699.3 -1847.6,2719.4 -391.5,970.9 -645.5,2005.9 -714,3052.6 -20.9,-653.4 42.3,-1306.3 153.6,-1950.6 179.8,-1017.6 510.3,-2013.8 1018.9,-2916.9 31.9,-54 96.7,-162.2 128.6,-216.2 59.1,-102.3 174.5,-271.1 239.9,-370.6 83.6,-112.7 175.5,-247.6 264.9,-355.3 l 159.8,-197.6 c 81.3,-92.9 172,-191.6 255,-284.6 30,-29.8 61.2,-61.2 92.6,-92.8 -2270.1,451.4 -3986.5,2458.6 -3986.5,4859.5 z m 1498.6,4908.8 c 948.3,152.2 2175.8,236.1 3456.2,236.1 1280.4,0 2507.9,-83.9 3456.3,-236.1 763.4,-122.6 1148.6,-255.6 1339.4,-348 -1308.4,-103.4 -2524.6,-662.4 -3462.8,-1600.6 -613.7,-613.8 -1065.1,-1346.6 -1333,-2146.4 -267.9,799.8 -719.2,1532.6 -1333,2146.4 -938.1,938.2 -2154.2,1497.1 -3462.6,1600.6 190.8,92.4 576,225.4 1339.5,348 z m 8981.7,-343.6 v 13.4 h -19.7 c -77.1,376 -626.2,637.2 -1751.9,838.5 -1005.3,179.7 -2338.4,278.7 -3753.9,278.7 -1415.5,0 -2748.6,-99 -3753.9,-278.7 -1125.7,-201.3 -1674.8,-462.5 -1751.9,-838.5 h -19.8 v -4578.6 c 0,-1475.9 574.7,-2863.5 1618.3,-3907.1 976.1,-976.2 2253.1,-1542.1 3621.9,-1611.2 v -7.3 h 72.4 c 3.7,-2.9 7.4,-5.9 10.8,-8.5 0,0 2.2,3.1 5.9,8.5 h 196.1 0.2 196.2 c 3.7,-5.4 5.8,-8.5 5.8,-8.5 3.3,2.6 7,5.6 10.7,8.5 h 72.6 v 7.3 c 1368.7,69.1 2645.7,635 3621.8,1611.2 673,673 1150.7,1489.2 1405.3,2379.7 1650.5,38.5 2981.3,1393 2981.3,3052.5 0,1587.5 -1217.8,2895.7 -2768.2,3040.1"
         style="fill:#ffffff;fill-opacity:1;fill-rule:nonzero;stroke:none"
         id="path52" />
      <path
         d="m 26683.4,29326.2 c 107.9,-94.3 198.4,-211.8 266.2,-337.8 217.9,-394 120.6,-820.8 -57.8,-1212.1 -71.2,-153.4 -73.8,-134.1 52.6,-40.1 425.8,352.9 607.2,907.3 386.7,1429 -67.8,163.1 -166.3,310.1 -289.6,436.1 -108,99.7 -257,252.4 -353,409.1 -295,442.6 -145.4,917.6 148.8,1329.8 -310.6,-140.1 -559.1,-432.1 -634.8,-767.5 -61,-258 -8,-539.9 114.6,-771.1 95.5,-184.8 225,-341.3 366.3,-475.4"
         style="fill:#ffffff;fill-opacity:1;fill-rule:nonzero;stroke:none"
         id="path54" />
      <path
         d="m 24482,29996 c 60.1,-68.7 113.6,-150.2 161,-232.1 377.3,-666.1 282.7,-1351.6 41.4,-2048.7 621.1,584.7 805.6,1523.2 405.1,2289.1 -59.5,114.7 -129.6,226.4 -215.2,324.5 -63,78.7 -242.2,344.4 -306.5,498.8 -281.9,589.8 -189.4,1228.3 116.6,1796 -324.8,-217.8 -548.3,-575.7 -642.2,-952.9 -79.1,-324.3 -53.3,-669.8 54.7,-984.5 88.9,-252.4 223.9,-487 385.1,-690.2"
         style="fill:#ffffff;fill-opacity:1;fill-rule:nonzero;stroke:none"
         id="path56" />
      <path
         d="m 22422.5,29326.2 c 107.9,-94.3 198.5,-211.8 266.3,-337.8 217.9,-393.9 120.6,-820.8 -57.8,-1212.1 -71.3,-153.4 -73.8,-134.1 52.5,-40.1 425.8,352.9 607.3,907.3 386.7,1429 -67.7,163.1 -166.3,310.1 -289.5,436.1 -108,99.7 -257,252.4 -353.1,409.1 -294.9,442.6 -145.3,917.6 148.9,1329.8 -310.7,-140.1 -559.2,-432.1 -634.8,-767.5 -61,-258 -8,-539.9 114.6,-771.1 95.4,-184.8 224.9,-341.3 366.2,-475.4"
         style="fill:#ffffff;fill-opacity:1;fill-rule:nonzero;stroke:none"
         id="path58" />
      <path
         d="m 33837.3,21266.9 c -483.1,-1142.1 -1174.6,-2167.8 -2055.5,-3048.7 -880.9,-880.9 -1906.6,-1572.4 -3048.7,-2055.5 -1182.2,-500 -2438.2,-753.6 -3733.1,-753.6 -1294.9,0 -2550.9,253.6 -3733.1,753.6 -1142,483.1 -2167.7,1174.6 -3048.6,2055.5 -880.9,880.9 -1572.5,1906.6 -2055.6,3048.7 -500,1182.2 -753.5,2438.2 -753.5,3733.1 0,1294.9 253.5,2550.9 753.5,3733.1 483.1,1142 1174.7,2167.7 2055.6,3048.6 880.9,880.9 1906.6,1572.5 3048.6,2055.6 1182.2,500 2438.2,753.5 3733.1,753.5 1294.9,0 2550.9,-253.5 3733.1,-753.5 1142.1,-483.1 2167.8,-1174.7 3048.7,-2055.6 880.9,-880.9 1572.4,-1906.6 2055.5,-3048.6 500,-1182.2 753.6,-2438.2 753.6,-3733.1 0,-1294.9 -253.6,-2550.9 -753.6,-3733.1 z m -1654.9,10915.5 c -932.7,932.7 -2019,1665.1 -3228.6,2176.7 -1252.4,529.7 -2582.7,798.3 -3953.8,798.3 -1371.1,0 -2701.4,-268.6 -3953.8,-798.3 -1209.6,-511.6 -2295.8,-1244 -3228.6,-2176.7 -932.7,-932.8 -1665.1,-2019 -2176.7,-3228.6 -529.7,-1252.4 -798.3,-2582.7 -798.3,-3953.8 0,-1371.1 268.6,-2701.4 798.3,-3953.8 511.6,-1209.6 1244,-2295.9 2176.7,-3228.6 932.8,-932.8 2019,-1665.1 3228.6,-2176.7 1252.4,-529.8 2582.7,-798.4 3953.8,-798.4 1371.1,0 2701.4,268.6 3953.8,798.4 1209.6,511.6 2295.9,1243.9 3228.6,2176.7 932.8,932.7 1665.1,2019 2176.7,3228.6 529.7,1252.4 798.4,2582.7 798.4,3953.8 0,1371.1 -268.7,2701.4 -798.4,3953.8 -511.6,1209.6 -1243.9,2295.8 -2176.7,3228.6"
         style="fill:#59361e;fill-opacity:1;fill-rule:nonzero;stroke:none"
         id="path60" />
      <path
         d="m 33377,21461.2 c -457.9,-1082.5 -1113.4,-2054.8 -1948.4,-2889.8 -835,-835 -1807.3,-1490.5 -2889.8,-1948.4 -1120.8,-474 -2311.4,-714.4 -3538.8,-714.4 -1227.4,0 -2418,240.4 -3538.7,714.4 -1082.6,457.9 -2054.9,1113.4 -2889.9,1948.4 -835,835 -1490.5,1807.3 -1948.4,2889.8 -474,1120.8 -714.4,2311.4 -714.4,3538.8 0,1227.4 240.4,2418 714.4,3538.7 457.9,1082.6 1113.4,2054.9 1948.4,2889.9 835,834.9 1807.3,1490.5 2889.9,1948.4 1120.7,474 2311.3,714.4 3538.7,714.4 1227.4,0 2418,-240.4 3538.8,-714.4 1082.5,-457.9 2054.8,-1113.5 2889.8,-1948.4 835,-835 1490.5,-1807.3 1948.4,-2889.9 474.1,-1120.7 714.4,-2311.3 714.4,-3538.7 0,-1227.4 -240.3,-2418 -714.4,-3538.8 z m -1809.5,10106.3 c -852.9,852.9 -1846.2,1522.6 -2952.2,1990.4 -1145.1,484.4 -2361.5,730 -3615.3,730 -1253.8,0 -2470.2,-245.6 -3615.3,-730 -1106,-467.8 -2099.3,-1137.5 -2952.2,-1990.4 -853,-852.9 -1522.6,-1846.2 -1990.4,-2952.2 -484.4,-1145.1 -730,-2361.5 -730,-3615.3 0,-1253.8 245.6,-2470.2 730,-3615.3 467.8,-1106 1137.4,-2099.3 1990.4,-2952.2 852.9,-853 1846.2,-1522.6 2952.2,-1990.4 1145.1,-484.4 2361.5,-730 3615.3,-730 1253.8,0 2470.2,245.6 3615.3,730 1106,467.8 2099.3,1137.4 2952.2,1990.4 853,852.9 1522.7,1846.2 1990.5,2952.2 484.3,1145.1 729.9,2361.5 729.9,3615.3 0,1253.8 -245.6,2470.2 -729.9,3615.3 -467.8,1106 -1137.5,2099.3 -1990.5,2952.2"
         style="fill:#59361e;fill-opacity:1;fill-rule:nonzero;stroke:none"
         id="path62" />
      <path
         d="m 37347.4,19784 c -674.9,-1595.6 -1641.1,-3028.7 -2871.9,-4259.5 -1230.8,-1230.8 -2663.9,-2197 -4259.6,-2871.9 -1651.8,-698.7 -3406.7,-1053 -5215.9,-1053 -1809.2,0 -3564,354.3 -5215.9,1053 -1595.7,674.9 -3028.8,1641.1 -4259.6,2871.9 -1230.7,1230.8 -2197,2663.9 -2871.9,4259.5 -698.7,1651.9 -1052.9,3406.8 -1052.9,5216 0,1809.2 354.2,3564.1 1052.9,5215.9 674.9,1595.7 1641.2,3028.8 2871.9,4259.6 1230.8,1230.7 2663.9,2197 4259.6,2871.9 1651.9,698.7 3406.7,1052.9 5215.9,1052.9 1809.2,0 3564.1,-354.2 5215.9,-1052.9 1595.7,-674.9 3028.8,-1641.2 4259.6,-2871.9 1230.8,-1230.8 2197,-2663.9 2871.9,-4259.6 698.7,-1651.8 1053,-3406.7 1053,-5215.9 0,-1809.2 -354.3,-3564.1 -1053,-5216 z m 535.2,10658.3 c -704.2,1664.9 -1712.3,3160.1 -2996.2,4444 -1284,1284 -2779.2,2292.1 -4444.1,2996.3 -1723.9,729.1 -3554.9,1098.8 -5442.3,1098.8 -1887.3,0 -3718.4,-369.7 -5442.3,-1098.8 -1664.9,-704.2 -3160.1,-1712.3 -4444,-2996.3 -1284,-1283.9 -2292.1,-2779.1 -2996.3,-4444 -729.1,-1723.9 -1098.8,-3555 -1098.8,-5442.3 0,-1887.4 369.7,-3718.4 1098.8,-5442.3 704.2,-1664.9 1712.3,-3160.1 2996.3,-4444.1 1283.9,-1283.9 2779.1,-2292 4444,-2996.2 1723.9,-729.1 3555,-1098.8 5442.3,-1098.8 1887.4,0 3718.4,369.7 5442.3,1098.8 1664.9,704.2 3160.1,1712.3 4444.1,2996.2 1283.9,1284 2292,2779.2 2996.2,4444.1 729.1,1723.9 1098.8,3554.9 1098.8,5442.3 0,1887.3 -369.7,3718.4 -1098.8,5442.3"
         style="fill:#59361e;fill-opacity:1;fill-rule:nonzero;stroke:none"
         id="path64" />
      <path
         d="m 38161.9,19439.9 c -719.5,-1701 -1749.4,-3228.6 -3061.3,-4540.5 -1311.9,-1311.9 -2839.5,-2341.9 -4540.5,-3061.3 -1761,-744.8 -3631.7,-1122.5 -5560.1,-1122.5 -1928.4,0 -3799.1,377.7 -5560.1,1122.5 -1701,719.4 -3228.6,1749.4 -4540.5,3061.3 -1311.9,1311.9 -2341.8,2839.5 -3061.3,4540.5 -744.8,1761 -1122.5,3631.7 -1122.5,5560.1 0,1928.4 377.7,3799.1 1122.5,5560.1 719.5,1700.9 1749.4,3228.6 3061.3,4540.5 1311.9,1311.9 2839.5,2341.8 4540.5,3061.3 1761,744.8 3631.7,1122.5 5560.1,1122.5 1928.4,0 3799.1,-377.7 5560.1,-1122.5 1701,-719.5 3228.6,-1749.4 4540.5,-3061.3 1311.9,-1311.9 2341.8,-2839.6 3061.3,-4540.5 744.8,-1761 1122.5,-3631.7 1122.5,-5560.1 0,-1928.4 -377.7,-3799.1 -1122.5,-5560.1 z m 177.2,11195.1 c -729.2,1723.9 -1773,3272.1 -3102.5,4601.6 -1329.5,1329.5 -2877.7,2373.3 -4601.5,3102.5 -1784.9,754.9 -3680.8,1137.7 -5635.1,1137.7 -1954.3,0 -3850.2,-382.8 -5635,-1137.7 -1723.9,-729.2 -3272.1,-1773 -4601.6,-3102.5 -1329.5,-1329.5 -2373.3,-2877.7 -3102.5,-4601.6 -754.9,-1784.8 -1137.7,-3680.7 -1137.7,-5635 0,-1954.3 382.8,-3850.2 1137.7,-5635.1 729.2,-1723.9 1773,-3272.1 3102.5,-4601.5 1329.5,-1329.5 2877.7,-2373.4 4601.6,-3102.5 1784.8,-754.9 3680.7,-1137.7 5635,-1137.7 1954.3,0 3850.2,382.8 5635.1,1137.7 1723.8,729.1 3272,1773 4601.5,3102.5 1329.5,1329.4 2373.3,2877.6 3102.5,4601.5 754.9,1784.9 1137.7,3680.8 1137.7,5635.1 0,1954.3 -382.8,3850.2 -1137.7,5635"
         style="fill:#59361e;fill-opacity:1;fill-rule:nonzero;stroke:none"
         id="path66" />
      <path
         d="m 12022.7,23043 c -511.3,225.8 -913.9,588.1 -1133.7,1020.3 -63.2,124.4 -44.4,272.2 47.8,376.6 39.6,44.8 88.8,77.2 142.4,95.8 -279.2,205.7 -394.9,578.7 -263.9,916.5 161.3,415.8 492.7,786 933.2,1042.5 441.6,257.3 965.7,392.1 1515.5,389.9 428.7,-1.7 852.3,-89.6 1225,-254.1 492.1,-217.3 886.5,-563.9 1110.4,-976 78.5,-144.3 62.2,-320 -41.3,-447.5 -51.1,-62.8 -118,-107.4 -191.6,-130.7 136.2,-93.2 241.9,-228.6 298.4,-386.4 74.3,-207.1 60.6,-429.4 -38.5,-626.1 -191.4,-380 -517.7,-701.6 -943.5,-930.1 -424.3,-227.6 -920.6,-346.8 -1435.2,-344.8 -428.7,1.7 -852.3,89.6 -1224.9,254.1 h -0.1"
         style="fill:#ffffff;fill-opacity:1;fill-rule:nonzero;stroke:none"
         id="path68" />
      <path
         d="m 15372.7,24191.6 c 142.4,282.8 -3.6,627.2 -307.3,716.7 -2,0.6 -4,1.2 -6,1.7 -451,131.7 -879.7,105 -1274.4,-79.2 -127.1,-59.5 -251.5,-142.8 -369.5,-248.3 -157.2,-140.3 -497.7,-386.6 -1011.9,-460.1 -380.1,-54.4 -780.3,-6 -1196,144.2 -45.5,16.4 -87.3,-31.3 -65.3,-74.5 331.7,-652.1 1149,-1115.3 2106.5,-1119.1 965.7,-3.8 1792.3,460.5 2123.9,1118.6 z m -3034.3,387.2 c -300.3,-42.9 -621.4,-3.8 -960.4,116.5 -265.7,94.4 -399.8,391.2 -297.8,654.1 282.2,727.4 1153.6,1255.2 2182.7,1251.1 939,-3.8 1743.2,-449.3 2086.9,-1081.6 51.3,-94.6 -37.9,-203.1 -141,-172.1 -0.9,0.2 -1.8,0.5 -2.8,0.8 -559.7,167.3 -1118.4,133.1 -1616,-99 -167.9,-78.5 -330,-186.8 -481.5,-322 -118.5,-105.7 -375.9,-291.5 -770.1,-347.8"
         style="fill:#59361e;fill-opacity:1;fill-rule:nonzero;stroke:none"
         id="path70" />
      <path
         d="m 37949.9,23043 c 511.2,225.8 913.8,588.1 1133.7,1020.3 63.2,124.4 44.4,272.2 -47.8,376.6 -39.6,44.8 -88.8,77.2 -142.4,95.8 279.2,205.7 394.9,578.7 263.9,916.5 -161.4,415.8 -492.8,786 -933.2,1042.5 -441.6,257.3 -965.7,392.1 -1515.5,389.9 -428.7,-1.7 -852.3,-89.6 -1225,-254.1 -492.2,-217.3 -886.5,-563.9 -1110.4,-976 -78.5,-144.3 -62.3,-320 41.3,-447.5 51.1,-62.8 118,-107.4 191.6,-130.7 -136.2,-93.2 -241.9,-228.6 -298.5,-386.4 -74.2,-207.1 -60.5,-429.4 38.6,-626.1 191.4,-380 517.7,-701.6 943.5,-930.1 424.3,-227.6 920.6,-346.8 1435.2,-344.8 428.7,1.7 852.3,89.6 1224.9,254.1 0,0 0,0 0.1,0"
         style="fill:#ffffff;fill-opacity:1;fill-rule:nonzero;stroke:none"
         id="path72" />
      <path
         d="m 34599.9,24191.6 c -142.4,282.8 3.5,627.2 307.2,716.7 2,0.6 4,1.2 6,1.7 451,131.7 879.8,105 1274.5,-79.2 127.1,-59.5 251.5,-142.8 369.5,-248.3 157.2,-140.3 497.7,-386.6 1011.8,-460.1 380.2,-54.4 780.4,-6 1196.1,144.2 45.5,16.4 87.3,-31.3 65.3,-74.5 -331.7,-652.1 -1149.1,-1115.3 -2106.6,-1119.1 -965.6,-3.8 -1792.3,460.5 -2123.8,1118.6 z m 3034.3,387.2 c 300.2,-42.9 621.4,-3.8 960.3,116.5 265.8,94.4 399.9,391.2 297.9,654.1 -282.3,727.4 -1153.7,1255.2 -2182.7,1251.1 -939,-3.8 -1743.3,-449.3 -2086.9,-1081.6 -51.4,-94.6 37.9,-203.1 140.9,-172.1 1,0.2 1.9,0.5 2.8,0.8 559.8,167.3 1118.5,133.1 1616,-99 168,-78.5 330.1,-186.8 481.6,-322 118.5,-105.7 375.9,-291.5 770.1,-347.8"
         style="fill:#59361e;fill-opacity:1;fill-rule:nonzero;stroke:none"
         id="path74" />
      <path
         d="m 15353.4,31468.5 c -23.6,-58.2 -36.9,-104.6 -39.9,-138.9 -3,-34.4 7.2,-64.6 30.7,-90.4 23.4,-25.9 65.6,-55 126.5,-87.4 l 454,-241 c -73.3,-138 -134.5,-297 -183.7,-477 -36,-129.8 -64.4,-226.4 -85.2,-289.7 -20.8,-63.4 -52.2,-134.6 -94.1,-213.5 -111.2,-209.4 -255.5,-362.8 -432.8,-460.2 -177.4,-97.4 -363,-142.5 -556.8,-135.3 -193.9,7.1 -372.2,53.9 -534.9,140.3 -186.5,99 -333.2,233.6 -439.9,403.7 -106.7,170.1 -163.9,354.2 -171.6,552.3 -7.7,198 36.2,387 131.7,566.9 116.2,218.9 297.7,378.1 544.5,477.6 -29.3,43.6 -76.1,91.1 -140.4,142.3 l 73.5,138.5 641.5,-322.3 -69.7,-131.3 c -106.8,31 -214.8,40.2 -324,27.4 -109.3,-12.7 -209.1,-47.9 -299.4,-105.5 -90.3,-57.5 -161.8,-135.8 -214.4,-234.8 -38.4,-72.3 -63.4,-149.9 -75.1,-232.8 -11.6,-82.9 -2.3,-171.1 27.9,-264.6 30.3,-93.5 89.5,-187.1 177.6,-280.9 88.1,-93.7 211.1,-182.5 369.1,-266.4 135.1,-71.7 272.6,-126.5 412.5,-164.1 139.8,-37.6 277.7,-36.4 413.6,3.7 136,40 246.4,140 331.3,299.9 66.7,125.6 97.5,231.3 92.3,317 -5.1,85.6 -31.1,153.4 -77.8,203.2 -46.8,49.9 -105.3,93.5 -175.8,130.9 -66.6,35.3 -117.8,56.1 -153.5,62.3 -35.8,6.2 -70.6,-5.3 -104.3,-34.3 -33.7,-29.1 -70.8,-81.7 -111.2,-157.9 l -131.4,69.8 457.8,862.2 131.4,-69.7"
         style="fill:#59361e;fill-opacity:1;fill-rule:nonzero;stroke:none"
         id="path76" />
      <path
         d="m 15852,33196.3 c -132.3,113.9 -254.7,149.2 -367.2,106.1 -112.5,-43.2 -224.7,-129.7 -336.5,-259.6 -15.4,-18 -27.3,-32.2 -35.7,-42.8 -8.4,-10.5 -18.2,-22.4 -29.5,-35.4 l 667.7,-574.7 66.4,77.2 c 106.1,123.3 175.2,244 207.3,362.2 32,118.1 -25.5,240.5 -172.5,367 z m 1811.5,-360.7 -382.8,-444.7 c -32,-0.9 -75.5,1.4 -130.6,6.9 -55,5.4 -117.9,13.7 -188.6,24.8 -70.8,11.1 -129.3,20.3 -175.7,27.6 l -283.2,47.5 c -126.9,21.1 -216.8,32 -269.5,32.6 -52.8,0.6 -97.7,-11.9 -134.7,-37.6 -37.1,-25.7 -89.7,-78.1 -157.9,-157.4 l -53.8,-62.4 433.7,-373.3 c 45.7,-39.4 86.7,-66.1 122.9,-80.2 36.2,-14.1 77.3,-9.3 123.3,14.4 45.9,23.7 98.8,70.2 158.6,139.6 l 112.7,-97 -717.1,-833 -112.7,97 c 87.2,101.3 128.6,179.1 124.1,233.4 -4.4,54.3 -42.6,112.4 -114.5,174.2 l -1048.5,902.6 c -71.1,61.2 -133.6,90.5 -187.7,88 -54.1,-2.5 -125.4,-55.2 -214,-158.1 l -115.1,99.1 318.8,395.2 c 23.7,30.8 51.5,65.5 83.3,104.2 31.9,38.7 61.9,74.4 90,107 21.8,25.3 58.9,66.7 111.1,124.1 73.4,80.4 144.8,153.3 214,218.9 69.2,65.5 127.4,114.2 174.7,146 68.3,47.9 144.1,83.9 227.5,108.1 83.4,24.2 169.4,28.3 258.1,12.5 88.6,-15.9 171.8,-57.3 249.3,-124.1 55.6,-47.8 99.1,-106.2 130.6,-175.3 31.6,-69.1 44.7,-148 39.5,-236.6 -5.2,-88.6 -33.6,-186.8 -85.1,-294.6 86.4,29.4 173.5,42.6 261.2,39.6 87.7,-3 239.3,-19.7 454.8,-50.2 123.5,-16.8 219.8,-25.8 289.1,-27.1 69.2,-1.3 123.1,6 161.7,21.9 38.5,15.8 78.5,43.6 119.8,83.4 l 112.7,-97"
         style="fill:#59361e;fill-opacity:1;fill-rule:nonzero;stroke:none"
         id="path78" />
      <path
         d="m 18782.9,34573.5 425.2,-582.5 -1548.3,-1189.6 -90.6,117.9 c 106.8,82 163.8,150.3 170.9,204.7 7.1,54.4 -18.2,119.2 -76,194.3 l -839,1092 c -38.1,49.6 -72.7,84.5 -103.9,104.7 -31.2,20.2 -71,24.2 -119.4,12.2 -48.5,-12.1 -110.7,-47.4 -186.8,-105.8 l -90.6,117.9 1441.9,1107.9 369.7,-433.4 -117.9,-90.6 c -103.3,79.6 -188.9,127.7 -256.6,144.3 -67.8,16.5 -127,13.1 -177.7,-10.2 -50.7,-23.4 -119.2,-68.2 -205.5,-134.5 l -325.5,-250.1 471.7,-613.9 176.9,135.9 c 60.6,46.6 101.8,86.7 123.5,120.4 21.7,33.6 27,70 16,109.1 -11,39.1 -39,92.4 -84,159.7 l 123.1,94.6 444.1,-578.1 -117.9,-90.6 c -52.6,61.5 -97.5,102.1 -134.4,122 -37,19.8 -74.2,23.5 -111.5,11.1 -37.4,-12.4 -86.4,-41.9 -147.1,-88.5 l -179.4,-137.9 314.2,-408.8 c 52.5,-68.4 92.6,-117.1 120.3,-146 27.7,-29 57.1,-48.2 88.1,-57.7 31.1,-9.5 67.1,-5.9 108,10.6 41,16.6 92.7,48.8 155.1,96.7 l 139.7,107.4 c 58.9,45.3 109.4,95.9 151.3,151.9 41.9,56 64.7,134.6 68.3,236 3.7,101.3 -35.1,226.1 -116.3,374.3 l 120.4,92.6"
         style="fill:#59361e;fill-opacity:1;fill-rule:nonzero;stroke:none"
         id="path80" />
      <path
         d="m 20747.2,35581.3 305.2,-653.3 -1748.1,-869.7 -66.2,133.1 c 120.5,60 189.6,116 207,168 17.5,52 5.1,120.5 -37.2,205.4 l -613.4,1232.9 c -27.8,56 -55.1,96.9 -81.8,122.7 -26.7,25.8 -65,37.5 -114.9,34.9 -49.8,-2.5 -117.7,-25.2 -203.6,-67.9 l -66.2,133.2 1628,810 279.5,-496.5 -133.2,-66.2 c -86,98 -160.7,161.6 -224,190.9 -63.3,29.3 -122.1,37.3 -176.4,24.2 -54.2,-13.2 -130,-44 -227.5,-92.4 l -367.5,-182.9 344.8,-693.2 199.7,99.4 c 68.5,34.1 116.7,65.5 144.4,94.4 27.8,28.8 40,63.5 36.7,104 -3.3,40.5 -20.5,98.1 -51.7,172.9 l 139,69.1 324.7,-652.7 -133.2,-66.2 c -39.8,70.4 -76,118.9 -108.5,145.5 -32.4,26.6 -68.2,37.4 -107.2,32.4 -39.1,-5 -92.9,-24.5 -161.4,-58.6 l -202.5,-100.8 229.6,-461.6 c 38.4,-77.2 68.4,-132.7 90.1,-166.5 21.6,-33.8 46.7,-58.3 75.4,-73.5 28.6,-15.2 64.6,-18.7 108,-10.3 43.4,8.3 100.3,30 170.7,65.1 l 157.7,78.4 c 66.6,33.2 125.8,73.1 177.7,120 51.9,46.9 89.4,119.7 112.5,218.5 23.1,98.7 9,228.6 -42.2,389.7 l 136,67.6"
         style="fill:#59361e;fill-opacity:1;fill-rule:nonzero;stroke:none"
         id="path82" />
      <path
         d="m 22947.2,37561.1 c -101.2,-26 -171.2,-54.8 -209.8,-86.4 -38.6,-31.6 -58,-68.6 -58.3,-110.9 -0.2,-42.4 11.2,-108.4 34.3,-198.2 l 432.3,-1682.9 -144.1,-37 -1812.4,1293.3 300.4,-1169.4 c 22.8,-88.7 44.8,-151.8 66.1,-189.1 21.3,-37.4 57.1,-61 107.5,-70.8 50.3,-9.9 125.6,-2 225.8,23.7 l 37,-144 -789,-202.7 -37,144.1 c 93.9,24.1 159.3,52.3 196,84.5 36.8,32.3 55,69.8 54.6,112.5 -0.4,42.7 -12,108.5 -34.8,197.2 l -278.3,1083.3 c -22.5,87.7 -41.7,152.8 -57.7,195.4 -15.9,42.7 -37,78.1 -63.2,106.5 -26.2,28.3 -62,47.4 -107.4,57.5 -45.4,10 -104.5,9.5 -177.4,-1.4 l -37,144.1 618.4,158.8 1575.3,-1117.3 -248.9,969.1 c -20.4,79.3 -41.5,138.7 -63.3,178.1 -21.8,39.5 -57.3,65.1 -106.5,77 -49.3,11.8 -120.8,5.7 -214.8,-18.5 l -36.9,144 792.1,203.5 37,-144"
         style="fill:#59361e;fill-opacity:1;fill-rule:nonzero;stroke:none"
         id="path84" />
      <path
         d="m 26422.5,35586.9 -151.8,6.4 c -18.7,93.6 -52.3,178 -100.9,253.4 -85.4,-81.6 -182.2,-150.8 -290.3,-207.7 -108.1,-56.9 -252,-81.5 -431.8,-73.9 -197,8.3 -377.8,64 -542.2,167 -164.4,102.9 -293,242.4 -385.9,418.3 -92.8,176 -134.7,371.6 -125.6,586.9 6.5,152.9 39.9,297.6 100.1,434.2 60.3,136.6 142.9,255.5 248.1,356.7 105.1,101.3 228.7,179.1 370.6,233.5 142,54.3 295.9,78 461.7,71 273.4,-11.6 495.7,-110.5 666.9,-296.8 25.6,45.3 51.6,111.6 78,198.9 l 145.3,-6.1 -8.3,-806.9 -155,6.5 c -22.2,137.9 -67.6,261.7 -136.3,371.4 -68.8,109.7 -152.2,194.9 -250.5,255.7 -98.3,60.8 -202.3,93.5 -312.1,98.2 -122.7,5.2 -234.5,-23.8 -335.3,-86.9 -100.9,-63.2 -181.9,-162.5 -243.2,-297.9 -61.3,-135.5 -96.3,-306 -105,-511.6 -8.5,-200.3 7.6,-367.9 48.3,-502.8 40.6,-134.9 93.7,-237.7 159.2,-308.4 65.5,-70.8 132.2,-119.7 200.1,-146.9 67.8,-27.1 131.9,-41.9 192.2,-44.5 132.4,-5.6 253.2,24.9 362.2,91.4 109,66.6 199.8,152.5 272.2,257.9 72.4,105.3 122.2,210.8 149.3,316.4 l 155,-6.6 -35,-826.8"
         style="fill:#59361e;fill-opacity:1;fill-rule:nonzero;stroke:none"
         id="path86" />
      <path
         d="m 28819.6,36089.4 c 33.3,118.2 54.8,233.1 64.4,344.6 9.5,111.4 1,217.1 -25.7,317 -26.7,99.9 -77.1,187.4 -151,262.6 -74,75.1 -175.8,131 -305.5,167.5 -178.4,50.3 -330.1,45.2 -455.2,-15.3 -125.1,-60.4 -224.3,-152.3 -297.6,-275.5 -73.4,-123.2 -132.2,-263.6 -176.7,-421.2 -24.5,-87.1 -44.4,-179.5 -59.6,-277.1 -15.2,-97.6 -15,-202.1 0.7,-313.4 15.6,-111.3 61.6,-214.4 137.9,-309.2 76.2,-94.8 190.1,-163.6 341.5,-206.2 150.4,-42.4 282.4,-41.9 396,1.7 113.6,43.5 206.1,109.8 277.7,198.8 71.5,89 125.7,178.1 162.6,267.3 37,89.3 67.1,175.4 90.5,258.4 z m 502.3,-148.3 c -54.1,-191.9 -150.4,-358.7 -288.9,-500.5 -138.5,-141.8 -311.4,-238 -518.8,-288.7 -207.4,-50.7 -433,-41.7 -676.7,27 -199.1,56.1 -365.3,137.7 -498.6,244.7 -133.3,106.9 -232.8,227.9 -298.3,362.8 -65.5,134.9 -103.3,273.1 -113.1,414.8 -10,141.6 3.4,277.2 39.9,406.8 52.9,187.7 147,352.7 282.2,494.8 135.2,142.2 305.9,239.3 512.1,291.5 206.1,52.1 432.6,43.4 679.4,-26.1 225.1,-63.5 406.1,-154.2 543,-272.3 136.8,-118.1 233.6,-245.5 290.2,-382.4 56.5,-136.8 86.4,-272 89.7,-405.6 3.2,-133.6 -10.8,-255.9 -42.1,-366.8"
         style="fill:#59361e;fill-opacity:1;fill-rule:nonzero;stroke:none"
         id="path88" />
      <path
         d="m 31487.2,35396.1 -134.4,71 c 33.2,120.2 43.1,215.6 29.8,286 -13.4,70.4 -41.5,124.4 -84.5,161.7 -43,37.4 -108.3,79.3 -196,125.6 l -345.7,183 -362.1,-684.4 181.5,-96 c 85.7,-45.3 151.6,-61.3 197.7,-47.9 46.1,13.4 98.7,69.1 157.8,167 l 131.5,-69.5 -340.9,-644.4 -134.3,71.1 c 34.5,76.8 53.9,134.8 58.2,174 4.3,39.2 -5.8,73.1 -30.2,101.9 -24.4,28.7 -67.6,59.5 -129.5,92.3 l -175.7,93 -304.6,-575.8 c -41.3,-78.1 -56.3,-143.9 -45,-197.5 11.3,-53.5 75,-111 191.2,-172.5 l 40,-21.1 -69.5,-131.5 -994.4,526.1 69.6,131.5 c 118,-62.5 203.2,-85.3 255.4,-68.4 52.2,16.9 100.2,66.7 144.1,149.6 l 644,1217.2 c 29.2,55.2 46.3,101.4 51.3,138.4 4.9,37 -8.2,75 -39.3,114 -31.2,39.1 -87.7,80.3 -169.6,123.6 l 69.5,131.4 1585.8,-839 -251.7,-510.4"
         style="fill:#59361e;fill-opacity:1;fill-rule:nonzero;stroke:none"
         id="path90" />
      <path
         d="m 33207.5,34094 -119.9,93.4 c 53.6,112.6 80,204.7 79.1,276.4 -0.8,71.7 -19.1,129.7 -55,174 -35.8,44.3 -92.8,96.9 -171,157.9 l -308.6,240.3 -475.8,-610.7 161.9,-126.2 c 76.6,-59.6 138.6,-86.8 186.4,-81.6 47.7,5.1 109.2,50.8 184.5,136.9 l 117.3,-91.4 -448,-575 -119.8,93.4 c 47.4,69.6 76.6,123.3 87.6,161.1 11.1,37.9 7.1,73.1 -11.9,105.6 -19.1,32.6 -56.2,70.4 -111.4,113.5 l -156.9,122.2 -400.3,-513.9 c -54.3,-69.7 -80.5,-131.9 -78.8,-186.6 1.8,-54.6 54.6,-122.3 158.3,-203.1 l 35.7,-27.9 -91.4,-117.3 -887.4,691.4 91.4,117.3 c 105.4,-82.1 185.2,-119.4 239.6,-111.9 54.3,7.5 110.3,48.3 167.9,122.2 l 846.4,1086.4 c 38.4,49.3 63.3,91.7 74.6,127.3 11.3,35.5 5,75.2 -18.8,119.1 -23.9,43.9 -72.4,94.3 -145.5,151.3 l 91.4,117.3 1415.3,-1102.7 -336.9,-458.7"
         style="fill:#59361e;fill-opacity:1;fill-rule:nonzero;stroke:none"
         id="path92" />
      <path
         d="m 34107.1,31783.4 -551.1,-465.1 -1295.5,1460.8 111.2,98.7 c 89.4,-100.7 161.5,-152.8 216.2,-156.1 54.8,-3.3 117.6,26.6 188.6,89.5 l 1030.3,913.7 c 46.7,41.5 79.1,78.5 97.1,111 18,32.5 19.2,72.5 3.8,120 -15.5,47.5 -55.1,107.1 -118.7,178.8 l 111.3,98.7 1206.5,-1360.5 -406.4,-399.2 -98.7,111.2 c 72.2,108.7 114.2,197.4 125.9,266.1 11.8,68.8 4.2,127.6 -22.6,176.6 -26.9,48.9 -76.4,114.1 -148.6,195.5 l -272.4,307.2 -579.2,-513.7 148,-166.9 c 50.7,-57.3 93.6,-95.5 128.8,-114.8 35.1,-19.3 71.7,-22 109.9,-8.3 38.3,13.7 89.4,45.4 153.5,95 l 102.9,-116.1 -545.4,-483.7 -98.6,111.3 c 57.5,56.8 94.9,104.4 112.1,142.7 17.2,38.2 18.3,75.6 3.3,112 -15,36.4 -47.9,83.2 -98.6,140.4 l -150.1,169.3 -385.8,-342.1 c -64.5,-57.2 -110.3,-100.6 -137.2,-130.3 -27,-29.7 -44.1,-60.3 -51.3,-92 -7.3,-31.6 -1.2,-67.3 18.2,-107 19.3,-39.7 55.1,-88.9 107.3,-147.8 l 116.9,-131.8 c 49.3,-55.6 103.4,-102.4 162.2,-140.3 58.8,-37.8 138.8,-55 240.2,-51.6 101.4,3.5 223.1,50.9 365.2,142.4 l 100.8,-113.6"
         style="fill:#59361e;fill-opacity:1;fill-rule:nonzero;stroke:none"
         id="path94" />
      <path
         d="m 35251.4,29895.1 -630.1,-350.7 -991.2,1682.2 128.1,75.5 c 68.4,-116 129.2,-180.9 182.3,-194.7 53.1,-13.7 120.5,3.5 202.2,51.7 l 1186.4,699.1 c 53.9,31.7 92.7,61.8 116.6,90.2 23.9,28.5 32.8,67.5 26.7,117.1 -6.1,49.6 -33.4,115.7 -82.1,198.3 l 128.1,75.5 923.1,-1566.7 -475.4,-313.9 -75.5,128.2 c 91.7,92.8 149.9,171.7 174.6,237 24.7,65.2 28.6,124.4 11.7,177.6 -17,53.1 -53.1,126.6 -108.3,220.4 l -208.4,353.7 -667.1,-393.1 113.3,-192.1 c 38.8,-65.9 73.6,-111.7 104.3,-137.4 30.8,-25.6 66.2,-35.4 106.4,-29.2 40.2,6.1 96.4,27.4 168.8,63.8 l 78.8,-133.7 -628.1,-370.1 -75.5,128.1 c 67.4,44.8 113.3,84.3 137.5,118.6 24.2,34.2 32.4,70.7 24.7,109.2 -7.8,38.6 -31,90.9 -69.9,156.8 l -114.8,195 -444.3,-261.8 c -74.3,-43.8 -127.5,-77.6 -159.6,-101.6 -32.2,-23.9 -54.9,-50.7 -68,-80.4 -13.2,-29.6 -14.1,-65.8 -2.7,-108.5 11.4,-42.7 37.1,-97.9 77,-165.7 l 89.4,-151.7 c 37.8,-64.1 81.9,-120.4 132.3,-168.8 50.4,-48.5 125.7,-80.7 225.9,-96.7 100.1,-16.1 228.7,7.1 385.7,69.7 l 77.1,-130.9"
         style="fill:#59361e;fill-opacity:1;fill-rule:nonzero;stroke:none"
         id="path96" />
    </g>
  </g>
</svg>
