<?xml version="1.0" encoding="UTF-8" standalone="no"?>
<!-- Created with Inkscape (http://www.inkscape.org/) -->

<svg
   version="1.1"
   id="svg2"
   width="666.66669"
   height="666.66669"
   viewBox="0 0 666.66669 666.66669"
   sodipodi:docname="23151269_6746685.eps"
   xmlns:inkscape="http://www.inkscape.org/namespaces/inkscape"
   xmlns:sodipodi="http://sodipodi.sourceforge.net/DTD/sodipodi-0.dtd"
   xmlns="http://www.w3.org/2000/svg"
   xmlns:svg="http://www.w3.org/2000/svg">
  <defs
     id="defs6">
    <clipPath
       clipPathUnits="userSpaceOnUse"
       id="clipPath20">
      <path
         d="m 3240.21,1698.05 c -6.55,0 -13.09,2.56 -18,7.65 -9.58,9.94 -9.28,25.77 0.66,35.35 205.83,198.31 319.19,464.84 319.19,750.5 0,574.59 -467.46,1042.06 -1042.05,1042.06 -574.59,0 -1042.06,-467.47 -1042.06,-1042.06 0,-285.67 113.36,-552.2 319.19,-750.5 9.95,-9.58 10.24,-25.41 0.66,-35.35 -9.57,-9.95 -25.4,-10.24 -35.34,-0.66 -215.72,207.81 -334.51,487.14 -334.51,786.51 0,602.16 489.89,1092.06 1092.06,1092.06 602.16,0 1092.05,-489.9 1092.05,-1092.06 0,-299.37 -118.8,-578.7 -334.5,-786.51 -4.85,-4.67 -11.1,-6.99 -17.35,-6.99 z"
         id="path18" />
    </clipPath>
    <linearGradient
       x1="0"
       y1="0"
       x2="1"
       y2="0"
       gradientUnits="userSpaceOnUse"
       gradientTransform="matrix(-953.33,1673.34,1673.34,953.33,2876.08,1830.59)"
       spreadMethod="pad"
       id="linearGradient32">
      <stop
         style="stop-opacity:1;stop-color:#5e3d1b"
         offset="0"
         id="stop22" />
      <stop
         style="stop-opacity:1;stop-color:#5e3d1b"
         offset="0.0728237"
         id="stop24" />
      <stop
         style="stop-opacity:1;stop-color:#b37a4b"
         offset="0.625598"
         id="stop26" />
      <stop
         style="stop-opacity:1;stop-color:#dea76e"
         offset="0.999362"
         id="stop28" />
      <stop
         style="stop-opacity:1;stop-color:#dea76e"
         offset="1"
         id="stop30" />
    </linearGradient>
    <clipPath
       clipPathUnits="userSpaceOnUse"
       id="clipPath42">
      <path
         d="m 2715.39,2595.13 c -1.79,0.09 -3.25,1.38 -3.68,3.01 l -0.13,0.48 c 0,0 -0.63,2.53 -1.85,7.3 -1.39,4.71 -2.61,11.7 -5.55,20.19 -3.02,8.45 -6.19,18.69 -11.68,29.63 -2.39,5.61 -5.2,11.37 -8.99,17.06 -3.52,5.76 -6.55,12.13 -11.27,17.84 -4.51,5.82 -8.42,12.3 -14.18,17.77 -5.24,5.7 -10.33,12.21 -16.4,16.92 -2.92,2.6 -5.84,5.22 -8.8,7.87 -2.93,2.67 -7.41,5.38 -11.1,8.12 -3.51,2.52 -7.02,5.07 -10.59,7.66 -3.78,2.17 -7.62,4.37 -11.44,6.58 -15.47,8.61 -32.51,15.21 -50.35,19.63 -8.79,2.7 -18.07,3.51 -27.23,5.06 -9.27,0.45 -18.55,1.22 -27.88,0.75 -18.61,-0.2 -37.3,-3.16 -54.76,-8.99 -8.9,-2.45 -17.25,-6.22 -25.74,-9.49 -7.98,-4.23 -16.29,-7.82 -23.52,-12.95 -7.68,-4.47 -14.35,-10.09 -21.29,-15.17 -6.66,-5.45 -12.05,-10.35 -18.19,-16.46 -2.99,-3.41 -5.94,-6.76 -8.84,-10.08 l -2.18,-2.47 -1.08,-1.22 -0.53,-0.62 -0.14,-0.16 c -0.07,-0.09 0.12,0.17 0.29,0.41 l -0.09,-0.11 -3.61,-4.69 c -5.01,-6.08 -9.17,-12.44 -13.11,-18.64 -7.53,-12.6 -13.79,-24.77 -18.12,-36.17 -4.39,-11.31 -7.63,-21.76 -9.67,-30.29 -0.93,-4.28 -1.88,-8.13 -2.75,-11.55 -0.58,-3.54 -1.09,-6.58 -1.49,-9.05 -0.8,-4.92 -1.24,-7.54 -1.24,-7.54 -0.35,-2.18 -2.39,-3.64 -4.57,-3.3 -1.76,0.29 -3.08,1.73 -3.3,3.42 0,0 -0.34,2.66 -0.98,7.59 -0.73,4.87 -1.72,12.16 -1.64,22.05 0.01,9.76 0.38,21.49 2.86,34.89 2.21,13.43 6.14,28.5 12.74,44.17 3.34,7.79 6.99,15.93 11.64,23.9 l 3.37,6.13 4.26,6.2 c 2.51,3.62 5.07,7.29 7.64,11.02 5.81,7.41 13.17,16.17 20.46,23.55 7.49,7.28 15.28,14.68 24.32,20.81 17.41,13.08 37.45,24.2 59.26,31.63 21.71,7.77 45.03,12.06 68.46,12.9 23.47,1.09 47.06,-2.2 69.22,-8.55 22.42,-5.69 42.97,-16.07 61.2,-27.9 4.52,-3.07 8.98,-6.1 13.41,-9.09 l 1.43,-1.07 0.36,-0.3 0.66,-0.6 1.39,-1.18 2.75,-2.35 5.39,-4.7 c 3.57,-3.36 6.96,-5.93 10.6,-9.86 3.54,-3.93 7.07,-7.84 10.54,-11.68 13.77,-15.39 23.23,-30.95 30.62,-46.49 4.18,-7.42 6.69,-15.24 9.35,-22.46 2.76,-7.16 4.56,-14.22 5.91,-20.94 3.59,-13.14 4.1,-25.05 4.93,-34.6 0.91,-9.57 -0.42,-17.23 -0.44,-22.25 -0.26,-5.08 -0.41,-7.77 -0.41,-7.77 -0.15,-2.21 -2.03,-3.92 -4.25,-3.8 z m -37.66,247.89 c -139.5,98.14 -332.15,64.65 -430.3,-74.86 -98.17,-139.48 -64.65,-332.14 74.85,-430.3 139.5,-98.15 332.12,-64.65 430.31,74.84 98.15,139.5 64.65,332.14 -74.86,430.32 z"
         id="path40" />
    </clipPath>
    <linearGradient
       x1="0"
       y1="0"
       x2="1"
       y2="0"
       gradientUnits="userSpaceOnUse"
       gradientTransform="matrix(202.477,2117.69,2117.69,-202.477,2405.18,1598.58)"
       spreadMethod="pad"
       id="linearGradient54">
      <stop
         style="stop-opacity:1;stop-color:#5e3d1b"
         offset="0"
         id="stop44" />
      <stop
         style="stop-opacity:1;stop-color:#5e3d1b"
         offset="0.0728237"
         id="stop46" />
      <stop
         style="stop-opacity:1;stop-color:#b37a4b"
         offset="0.625598"
         id="stop48" />
      <stop
         style="stop-opacity:1;stop-color:#dea76e"
         offset="0.999362"
         id="stop50" />
      <stop
         style="stop-opacity:1;stop-color:#dea76e"
         offset="1"
         id="stop52" />
    </linearGradient>
    <clipPath
       clipPathUnits="userSpaceOnUse"
       id="clipPath64">
      <path
         d="m 2338.29,2703.8 0.14,0.18 c 0.29,0.41 0.08,0.12 -0.14,-0.18 z"
         id="path62" />
    </clipPath>
    <linearGradient
       x1="0"
       y1="0"
       x2="1"
       y2="0"
       gradientUnits="userSpaceOnUse"
       gradientTransform="matrix(202.593,2118.91,2118.91,-202.593,2234.25,1614.27)"
       spreadMethod="pad"
       id="linearGradient76">
      <stop
         style="stop-opacity:1;stop-color:#5e3d1b"
         offset="0"
         id="stop66" />
      <stop
         style="stop-opacity:1;stop-color:#5e3d1b"
         offset="0.0728237"
         id="stop68" />
      <stop
         style="stop-opacity:1;stop-color:#b37a4b"
         offset="0.625598"
         id="stop70" />
      <stop
         style="stop-opacity:1;stop-color:#dea76e"
         offset="0.999362"
         id="stop72" />
      <stop
         style="stop-opacity:1;stop-color:#dea76e"
         offset="1"
         id="stop74" />
    </linearGradient>
    <clipPath
       clipPathUnits="userSpaceOnUse"
       id="clipPath86">
      <path
         d="m 2150.26,2093.4 c -274.07,192.87 -340.14,572.7 -147.28,846.77 192.84,274.07 572.69,340.15 846.77,147.29 274.05,-192.85 340.14,-572.71 147.29,-846.79 -192.86,-274.04 -572.71,-340.11 -846.78,-147.27 z m 723.11,1027.64 c -292.58,205.88 -698.09,135.34 -903.96,-157.24 -205.88,-292.58 -135.35,-698.09 157.23,-903.98 292.6,-205.87 698.11,-135.34 903.98,157.24 205.86,292.58 135.36,698.1 -157.25,903.98 z"
         id="path84" />
    </clipPath>
    <linearGradient
       x1="0"
       y1="0"
       x2="1"
       y2="0"
       gradientUnits="userSpaceOnUse"
       gradientTransform="matrix(185.128,1936.24,1936.24,-185.128,2413.31,1683.56)"
       spreadMethod="pad"
       id="linearGradient98">
      <stop
         style="stop-opacity:1;stop-color:#5e3d1b"
         offset="0"
         id="stop88" />
      <stop
         style="stop-opacity:1;stop-color:#5e3d1b"
         offset="0.0728237"
         id="stop90" />
      <stop
         style="stop-opacity:1;stop-color:#b37a4b"
         offset="0.625598"
         id="stop92" />
      <stop
         style="stop-opacity:1;stop-color:#dea76e"
         offset="0.999362"
         id="stop94" />
      <stop
         style="stop-opacity:1;stop-color:#dea76e"
         offset="1"
         id="stop96" />
    </linearGradient>
    <clipPath
       clipPathUnits="userSpaceOnUse"
       id="clipPath108">
      <path
         d="m 2291.84,2294.59 c -163.11,114.79 -202.45,340.89 -87.67,504 114.79,163.13 340.88,202.46 503.98,87.67 163.14,-114.79 202.48,-340.87 87.7,-503.99 -114.79,-163.11 -340.88,-202.45 -504.01,-87.68 z m -215.74,562.05 c -9.24,6.49 -11.48,19.35 -4.97,28.59 l 6.57,9.32 c 6.51,9.27 19.35,11.5 28.6,4.99 l 80.18,-56.42 c -5.45,-6.78 -10.8,-13.7 -15.87,-20.91 -5.08,-7.2 -9.78,-14.56 -14.32,-21.99 z m 655.69,63.2 c -162.88,114.59 -382.07,91.13 -517.77,-45.89 l -84.1,59.17 c -27.76,19.54 -66.25,12.84 -85.79,-14.95 l -6.56,-9.31 c -19.55,-27.78 -12.86,-66.27 14.91,-85.8 l 84.09,-59.17 c -83.15,-174.01 -31.23,-388.24 131.64,-502.85 181.63,-127.82 433.4,-84.02 561.2,97.6 127.81,181.63 84,433.39 -97.62,561.2 z"
         id="path106" />
    </clipPath>
    <linearGradient
       x1="0"
       y1="0"
       x2="1"
       y2="0"
       gradientUnits="userSpaceOnUse"
       gradientTransform="matrix(185.126,1936.22,1936.22,-185.126,2365.51,1688.13)"
       spreadMethod="pad"
       id="linearGradient120">
      <stop
         style="stop-opacity:1;stop-color:#5e3d1b"
         offset="0"
         id="stop110" />
      <stop
         style="stop-opacity:1;stop-color:#5e3d1b"
         offset="0.0728237"
         id="stop112" />
      <stop
         style="stop-opacity:1;stop-color:#b37a4b"
         offset="0.625598"
         id="stop114" />
      <stop
         style="stop-opacity:1;stop-color:#dea76e"
         offset="0.999362"
         id="stop116" />
      <stop
         style="stop-opacity:1;stop-color:#dea76e"
         offset="1"
         id="stop118" />
    </linearGradient>
    <clipPath
       clipPathUnits="userSpaceOnUse"
       id="clipPath148">
      <path
         d="m 1962.3,1708.45 c -19.97,0 -34.47,-15.93 -34.47,-38.04 0,-22.34 14.5,-38.52 34.47,-38.52 11.88,0 26.86,7.38 37.8,19.03 l 31.85,-34 c -18.54,-20.21 -46.83,-33.28 -72.51,-33.28 -51.11,0 -88.19,36.37 -88.19,86.06 0,48.97 38.03,84.63 90.34,84.63 25.43,0 53.25,-11.89 70.36,-30.43 l -31.85,-37.8 c -9.99,13.55 -24.96,22.35 -37.8,22.35 z"
         id="path146" />
    </clipPath>
    <linearGradient
       x1="0"
       y1="0"
       x2="1"
       y2="0"
       gradientUnits="userSpaceOnUse"
       gradientTransform="matrix(-1067.93,-5.51135,-5.51135,1067.93,3046.89,1605.34)"
       spreadMethod="pad"
       id="linearGradient160">
      <stop
         style="stop-opacity:1;stop-color:#5e3d1b"
         offset="0"
         id="stop150" />
      <stop
         style="stop-opacity:1;stop-color:#5e3d1b"
         offset="0.0728237"
         id="stop152" />
      <stop
         style="stop-opacity:1;stop-color:#b37a4b"
         offset="0.625598"
         id="stop154" />
      <stop
         style="stop-opacity:1;stop-color:#dea76e"
         offset="0.999362"
         id="stop156" />
      <stop
         style="stop-opacity:1;stop-color:#dea76e"
         offset="1"
         id="stop158" />
    </linearGradient>
    <clipPath
       clipPathUnits="userSpaceOnUse"
       id="clipPath170">
      <path
         d="m 2136.54,1669.22 c 0,-22.82 16.64,-39.7 35.66,-39.7 19.02,0 34.24,16.88 34.24,39.7 0,22.82 -15.22,39.23 -34.24,39.23 -19.26,0 -35.66,-16.41 -35.66,-39.23 z m 126.48,0.24 c 0,-49.45 -38.52,-85.82 -91.53,-85.82 -53.01,0 -91.53,36.14 -91.53,85.82 0,49.45 38.52,84.87 91.53,84.87 53.01,0 91.53,-35.66 91.53,-84.87 z"
         id="path168" />
    </clipPath>
    <linearGradient
       x1="0"
       y1="0"
       x2="1"
       y2="0"
       gradientUnits="userSpaceOnUse"
       gradientTransform="matrix(-1067.93,-5.51135,-5.51135,1067.93,3046.89,1605.34)"
       spreadMethod="pad"
       id="linearGradient182">
      <stop
         style="stop-opacity:1;stop-color:#5e3d1b"
         offset="0"
         id="stop172" />
      <stop
         style="stop-opacity:1;stop-color:#5e3d1b"
         offset="0.0728237"
         id="stop174" />
      <stop
         style="stop-opacity:1;stop-color:#b37a4b"
         offset="0.625598"
         id="stop176" />
      <stop
         style="stop-opacity:1;stop-color:#dea76e"
         offset="0.999362"
         id="stop178" />
      <stop
         style="stop-opacity:1;stop-color:#dea76e"
         offset="1"
         id="stop180" />
    </linearGradient>
    <clipPath
       clipPathUnits="userSpaceOnUse"
       id="clipPath192">
      <path
         d="m 2460.07,1752.67 v -41.85 h -78.92 v -28.76 h 73.93 v -41.84 h -73.93 v -54.2 h -55.16 v 166.65 z"
         id="path190" />
    </clipPath>
    <linearGradient
       x1="0"
       y1="0"
       x2="1"
       y2="0"
       gradientUnits="userSpaceOnUse"
       gradientTransform="matrix(-1067.93,-5.51135,-5.51135,1067.93,3046.89,1605.34)"
       spreadMethod="pad"
       id="linearGradient204">
      <stop
         style="stop-opacity:1;stop-color:#5e3d1b"
         offset="0"
         id="stop194" />
      <stop
         style="stop-opacity:1;stop-color:#5e3d1b"
         offset="0.0728237"
         id="stop196" />
      <stop
         style="stop-opacity:1;stop-color:#b37a4b"
         offset="0.625598"
         id="stop198" />
      <stop
         style="stop-opacity:1;stop-color:#dea76e"
         offset="0.999362"
         id="stop200" />
      <stop
         style="stop-opacity:1;stop-color:#dea76e"
         offset="1"
         id="stop202" />
    </linearGradient>
    <clipPath
       clipPathUnits="userSpaceOnUse"
       id="clipPath214">
      <path
         d="m 2657.62,1752.67 v -41.85 h -78.93 v -28.76 h 73.94 v -41.84 h -73.94 v -54.2 h -55.15 v 166.65 z"
         id="path212" />
    </clipPath>
    <linearGradient
       x1="0"
       y1="0"
       x2="1"
       y2="0"
       gradientUnits="userSpaceOnUse"
       gradientTransform="matrix(-1067.93,-5.51135,-5.51135,1067.93,3046.89,1605.34)"
       spreadMethod="pad"
       id="linearGradient226">
      <stop
         style="stop-opacity:1;stop-color:#5e3d1b"
         offset="0"
         id="stop216" />
      <stop
         style="stop-opacity:1;stop-color:#5e3d1b"
         offset="0.0728237"
         id="stop218" />
      <stop
         style="stop-opacity:1;stop-color:#b37a4b"
         offset="0.625598"
         id="stop220" />
      <stop
         style="stop-opacity:1;stop-color:#dea76e"
         offset="0.999362"
         id="stop222" />
      <stop
         style="stop-opacity:1;stop-color:#dea76e"
         offset="1"
         id="stop224" />
    </linearGradient>
    <clipPath
       clipPathUnits="userSpaceOnUse"
       id="clipPath236">
      <path
         d="m 2862.05,1752.67 v -41.85 h -85.82 v -20.44 h 77.98 v -41.84 h -77.98 v -20.69 h 87.96 v -41.83 h -143.12 v 166.65 z"
         id="path234" />
    </clipPath>
    <linearGradient
       x1="0"
       y1="0"
       x2="1"
       y2="0"
       gradientUnits="userSpaceOnUse"
       gradientTransform="matrix(-1067.93,-5.51135,-5.51135,1067.93,3046.89,1605.34)"
       spreadMethod="pad"
       id="linearGradient248">
      <stop
         style="stop-opacity:1;stop-color:#5e3d1b"
         offset="0"
         id="stop238" />
      <stop
         style="stop-opacity:1;stop-color:#5e3d1b"
         offset="0.0728237"
         id="stop240" />
      <stop
         style="stop-opacity:1;stop-color:#b37a4b"
         offset="0.625598"
         id="stop242" />
      <stop
         style="stop-opacity:1;stop-color:#dea76e"
         offset="0.999362"
         id="stop244" />
      <stop
         style="stop-opacity:1;stop-color:#dea76e"
         offset="1"
         id="stop246" />
    </linearGradient>
    <clipPath
       clipPathUnits="userSpaceOnUse"
       id="clipPath258">
      <path
         d="m 3073.61,1752.67 v -41.85 h -85.82 v -20.44 h 77.98 v -41.84 h -77.98 v -20.69 h 87.96 v -41.83 h -143.11 v 166.65 z"
         id="path256" />
    </clipPath>
    <linearGradient
       x1="0"
       y1="0"
       x2="1"
       y2="0"
       gradientUnits="userSpaceOnUse"
       gradientTransform="matrix(-1067.93,-5.51135,-5.51135,1067.93,3046.89,1605.34)"
       spreadMethod="pad"
       id="linearGradient270">
      <stop
         style="stop-opacity:1;stop-color:#5e3d1b"
         offset="0"
         id="stop260" />
      <stop
         style="stop-opacity:1;stop-color:#5e3d1b"
         offset="0.0728237"
         id="stop262" />
      <stop
         style="stop-opacity:1;stop-color:#b37a4b"
         offset="0.625598"
         id="stop264" />
      <stop
         style="stop-opacity:1;stop-color:#dea76e"
         offset="0.999362"
         id="stop266" />
      <stop
         style="stop-opacity:1;stop-color:#dea76e"
         offset="1"
         id="stop268" />
    </linearGradient>
    <clipPath
       clipPathUnits="userSpaceOnUse"
       id="clipPath280">
      <path
         d="m 1987.43,1476.43 v -25.8 h -18.03 v 25.35 l -29.56,54.55 h 18.15 l 20.43,-35.84 19.97,35.84 h 18.15 z"
         id="path278" />
    </clipPath>
    <linearGradient
       x1="0"
       y1="0"
       x2="1"
       y2="0"
       gradientUnits="userSpaceOnUse"
       gradientTransform="matrix(-1067.93,-5.51135,-5.51135,1067.93,3046.89,1605.34)"
       spreadMethod="pad"
       id="linearGradient292">
      <stop
         style="stop-opacity:1;stop-color:#5e3d1b"
         offset="0"
         id="stop282" />
      <stop
         style="stop-opacity:1;stop-color:#5e3d1b"
         offset="0.0728237"
         id="stop284" />
      <stop
         style="stop-opacity:1;stop-color:#b37a4b"
         offset="0.625598"
         id="stop286" />
      <stop
         style="stop-opacity:1;stop-color:#dea76e"
         offset="0.999362"
         id="stop288" />
      <stop
         style="stop-opacity:1;stop-color:#dea76e"
         offset="1"
         id="stop290" />
    </linearGradient>
    <clipPath
       clipPathUnits="userSpaceOnUse"
       id="clipPath302">
      <path
         d="m 2060.22,1490.59 c 0,-14.05 11.3,-25 24.66,-25 13.35,0 24.19,10.95 24.19,25 0,14.03 -10.84,24.76 -24.19,24.76 -13.47,0 -24.66,-10.73 -24.66,-24.76 z m 67.34,0 c 0,-23.06 -18.49,-40.76 -42.91,-40.76 -24.43,0 -42.92,17.58 -42.92,40.76 0,23.28 18.49,40.51 42.92,40.51 24.42,0 42.91,-17.35 42.91,-40.51 z"
         id="path300" />
    </clipPath>
    <linearGradient
       x1="0"
       y1="0"
       x2="1"
       y2="0"
       gradientUnits="userSpaceOnUse"
       gradientTransform="matrix(-1067.93,-5.51135,-5.51135,1067.93,3046.89,1605.34)"
       spreadMethod="pad"
       id="linearGradient314">
      <stop
         style="stop-opacity:1;stop-color:#5e3d1b"
         offset="0"
         id="stop304" />
      <stop
         style="stop-opacity:1;stop-color:#5e3d1b"
         offset="0.0728237"
         id="stop306" />
      <stop
         style="stop-opacity:1;stop-color:#b37a4b"
         offset="0.625598"
         id="stop308" />
      <stop
         style="stop-opacity:1;stop-color:#dea76e"
         offset="0.999362"
         id="stop310" />
      <stop
         style="stop-opacity:1;stop-color:#dea76e"
         offset="1"
         id="stop312" />
    </linearGradient>
    <clipPath
       clipPathUnits="userSpaceOnUse"
       id="clipPath324">
      <path
         d="m 2197.04,1465.59 c 10.73,0 17.81,6.96 17.81,18.48 v 46.46 h 18.03 v -46.46 c 0,-21.11 -13.81,-34.24 -35.84,-34.24 -22.14,0 -36.29,13.13 -36.29,34.24 v 46.46 h 18.03 v -46.46 c 0,-11.52 7.53,-18.48 18.26,-18.48 z"
         id="path322" />
    </clipPath>
    <linearGradient
       x1="0"
       y1="0"
       x2="1"
       y2="0"
       gradientUnits="userSpaceOnUse"
       gradientTransform="matrix(-1067.93,-5.51135,-5.51135,1067.93,3046.89,1605.34)"
       spreadMethod="pad"
       id="linearGradient336">
      <stop
         style="stop-opacity:1;stop-color:#5e3d1b"
         offset="0"
         id="stop326" />
      <stop
         style="stop-opacity:1;stop-color:#5e3d1b"
         offset="0.0728237"
         id="stop328" />
      <stop
         style="stop-opacity:1;stop-color:#b37a4b"
         offset="0.625598"
         id="stop330" />
      <stop
         style="stop-opacity:1;stop-color:#dea76e"
         offset="0.999362"
         id="stop332" />
      <stop
         style="stop-opacity:1;stop-color:#dea76e"
         offset="1"
         id="stop334" />
    </linearGradient>
    <clipPath
       clipPathUnits="userSpaceOnUse"
       id="clipPath346">
      <path
         d="m 2289.8,1488.53 h 16.66 c 9.94,0 15.64,4.57 15.64,13.7 0,8.89 -5.7,13.35 -15.64,13.35 h -16.66 z m 31.04,-37.9 -12.67,22.84 h -18.37 v -22.84 h -18.03 v 79.9 h 34.69 c 20.89,0 32.76,-10.04 32.76,-27.74 0,-12.32 -5.25,-21.23 -14.95,-25.79 l 17,-26.37 z"
         id="path344" />
    </clipPath>
    <linearGradient
       x1="0"
       y1="0"
       x2="1"
       y2="0"
       gradientUnits="userSpaceOnUse"
       gradientTransform="matrix(-1067.93,-5.51135,-5.51135,1067.93,3046.89,1605.34)"
       spreadMethod="pad"
       id="linearGradient358">
      <stop
         style="stop-opacity:1;stop-color:#5e3d1b"
         offset="0"
         id="stop348" />
      <stop
         style="stop-opacity:1;stop-color:#5e3d1b"
         offset="0.0728237"
         id="stop350" />
      <stop
         style="stop-opacity:1;stop-color:#b37a4b"
         offset="0.625598"
         id="stop352" />
      <stop
         style="stop-opacity:1;stop-color:#dea76e"
         offset="0.999362"
         id="stop354" />
      <stop
         style="stop-opacity:1;stop-color:#dea76e"
         offset="1"
         id="stop356" />
    </linearGradient>
    <clipPath
       clipPathUnits="userSpaceOnUse"
       id="clipPath368">
      <path
         d="m 2461.99,1515.92 c -6.05,0 -10.16,-2.17 -10.16,-6.51 0,-14.72 42.57,-6.5 42.46,-35.26 0,-15.64 -13.59,-24.08 -31.28,-24.08 -13.12,0 -26.25,5.02 -35.27,12.66 l 7.2,14.73 c 8.21,-7.3 19.85,-11.99 28.3,-11.99 7.42,0 11.87,2.74 11.87,7.65 0,15.06 -42.57,6.27 -42.57,34.59 0,14.49 12.44,23.62 30.93,23.62 11.19,0 22.37,-3.43 30.36,-8.67 l -6.96,-14.95 c -8.45,5.01 -18.49,8.21 -24.88,8.21 z"
         id="path366" />
    </clipPath>
    <linearGradient
       x1="0"
       y1="0"
       x2="1"
       y2="0"
       gradientUnits="userSpaceOnUse"
       gradientTransform="matrix(-1067.93,-5.51135,-5.51135,1067.93,3046.89,1605.34)"
       spreadMethod="pad"
       id="linearGradient380">
      <stop
         style="stop-opacity:1;stop-color:#5e3d1b"
         offset="0"
         id="stop370" />
      <stop
         style="stop-opacity:1;stop-color:#5e3d1b"
         offset="0.0728237"
         id="stop372" />
      <stop
         style="stop-opacity:1;stop-color:#b37a4b"
         offset="0.625598"
         id="stop374" />
      <stop
         style="stop-opacity:1;stop-color:#dea76e"
         offset="0.999362"
         id="stop376" />
      <stop
         style="stop-opacity:1;stop-color:#dea76e"
         offset="1"
         id="stop378" />
    </linearGradient>
    <clipPath
       clipPathUnits="userSpaceOnUse"
       id="clipPath390">
      <path
         d="m 2547.79,1530.53 v -64.14 h 34.24 v -15.76 h -52.27 v 79.9 z"
         id="path388" />
    </clipPath>
    <linearGradient
       x1="0"
       y1="0"
       x2="1"
       y2="0"
       gradientUnits="userSpaceOnUse"
       gradientTransform="matrix(-1067.93,-5.51135,-5.51135,1067.93,3046.89,1605.34)"
       spreadMethod="pad"
       id="linearGradient402">
      <stop
         style="stop-opacity:1;stop-color:#5e3d1b"
         offset="0"
         id="stop392" />
      <stop
         style="stop-opacity:1;stop-color:#5e3d1b"
         offset="0.0728237"
         id="stop394" />
      <stop
         style="stop-opacity:1;stop-color:#b37a4b"
         offset="0.625598"
         id="stop396" />
      <stop
         style="stop-opacity:1;stop-color:#dea76e"
         offset="0.999362"
         id="stop398" />
      <stop
         style="stop-opacity:1;stop-color:#dea76e"
         offset="1"
         id="stop400" />
    </linearGradient>
    <clipPath
       clipPathUnits="userSpaceOnUse"
       id="clipPath412">
      <path
         d="m 2628.34,1490.59 c 0,-14.05 11.3,-25 24.65,-25 13.36,0 24.2,10.95 24.2,25 0,14.03 -10.84,24.76 -24.2,24.76 -13.47,0 -24.65,-10.73 -24.65,-24.76 z m 67.34,0 c 0,-23.06 -18.49,-40.76 -42.92,-40.76 -24.42,0 -42.91,17.58 -42.91,40.76 0,23.28 18.49,40.51 42.91,40.51 24.43,0 42.92,-17.35 42.92,-40.51 z"
         id="path410" />
    </clipPath>
    <linearGradient
       x1="0"
       y1="0"
       x2="1"
       y2="0"
       gradientUnits="userSpaceOnUse"
       gradientTransform="matrix(-1067.93,-5.51135,-5.51135,1067.93,3046.89,1605.34)"
       spreadMethod="pad"
       id="linearGradient424">
      <stop
         style="stop-opacity:1;stop-color:#5e3d1b"
         offset="0"
         id="stop414" />
      <stop
         style="stop-opacity:1;stop-color:#5e3d1b"
         offset="0.0728237"
         id="stop416" />
      <stop
         style="stop-opacity:1;stop-color:#b37a4b"
         offset="0.625598"
         id="stop418" />
      <stop
         style="stop-opacity:1;stop-color:#dea76e"
         offset="0.999362"
         id="stop420" />
      <stop
         style="stop-opacity:1;stop-color:#dea76e"
         offset="1"
         id="stop422" />
    </linearGradient>
    <clipPath
       clipPathUnits="userSpaceOnUse"
       id="clipPath434">
      <path
         d="m 2781.93,1490.93 h 15.64 v -30.71 c -8.45,-6.16 -21.34,-10.39 -32.41,-10.39 -24.2,0 -42.57,17.58 -42.57,40.76 0,23.05 18.71,40.51 43.59,40.51 11.88,0 23.98,-4.57 32.07,-11.64 l -10.15,-12.9 c -5.94,5.48 -14.15,8.9 -21.92,8.9 -14.15,0 -25.11,-10.84 -25.11,-24.87 0,-14.16 11.08,-25 25.23,-25 4.79,0 10.5,1.71 15.63,4.33 z"
         id="path432" />
    </clipPath>
    <linearGradient
       x1="0"
       y1="0"
       x2="1"
       y2="0"
       gradientUnits="userSpaceOnUse"
       gradientTransform="matrix(-1067.93,-5.51135,-5.51135,1067.93,3046.89,1605.34)"
       spreadMethod="pad"
       id="linearGradient446">
      <stop
         style="stop-opacity:1;stop-color:#5e3d1b"
         offset="0"
         id="stop436" />
      <stop
         style="stop-opacity:1;stop-color:#5e3d1b"
         offset="0.0728237"
         id="stop438" />
      <stop
         style="stop-opacity:1;stop-color:#b37a4b"
         offset="0.625598"
         id="stop440" />
      <stop
         style="stop-opacity:1;stop-color:#dea76e"
         offset="0.999362"
         id="stop442" />
      <stop
         style="stop-opacity:1;stop-color:#dea76e"
         offset="1"
         id="stop444" />
    </linearGradient>
    <clipPath
       clipPathUnits="userSpaceOnUse"
       id="clipPath456">
      <path
         d="m 2883.04,1480.65 -12.56,31.05 -12.67,-31.05 z m 5.82,-14.49 h -36.98 l -6.28,-15.53 h -18.61 l 34.7,79.9 h 18.6 l 34.13,-79.9 h -19.29 z"
         id="path454" />
    </clipPath>
    <linearGradient
       x1="0"
       y1="0"
       x2="1"
       y2="0"
       gradientUnits="userSpaceOnUse"
       gradientTransform="matrix(-1067.93,-5.51135,-5.51135,1067.93,3046.89,1605.34)"
       spreadMethod="pad"
       id="linearGradient468">
      <stop
         style="stop-opacity:1;stop-color:#5e3d1b"
         offset="0"
         id="stop458" />
      <stop
         style="stop-opacity:1;stop-color:#5e3d1b"
         offset="0.0728237"
         id="stop460" />
      <stop
         style="stop-opacity:1;stop-color:#b37a4b"
         offset="0.625598"
         id="stop462" />
      <stop
         style="stop-opacity:1;stop-color:#dea76e"
         offset="0.999362"
         id="stop464" />
      <stop
         style="stop-opacity:1;stop-color:#dea76e"
         offset="1"
         id="stop466" />
    </linearGradient>
    <clipPath
       clipPathUnits="userSpaceOnUse"
       id="clipPath478">
      <path
         d="m 2961.98,1530.53 38.81,-51.36 v 51.36 h 17.12 v -79.9 h -16.44 l -38.69,51.25 v -51.25 h -17.23 v 79.9 z"
         id="path476" />
    </clipPath>
    <linearGradient
       x1="0"
       y1="0"
       x2="1"
       y2="0"
       gradientUnits="userSpaceOnUse"
       gradientTransform="matrix(-1067.93,-5.51135,-5.51135,1067.93,3046.89,1605.34)"
       spreadMethod="pad"
       id="linearGradient490">
      <stop
         style="stop-opacity:1;stop-color:#5e3d1b"
         offset="0"
         id="stop480" />
      <stop
         style="stop-opacity:1;stop-color:#5e3d1b"
         offset="0.0728237"
         id="stop482" />
      <stop
         style="stop-opacity:1;stop-color:#b37a4b"
         offset="0.625598"
         id="stop484" />
      <stop
         style="stop-opacity:1;stop-color:#dea76e"
         offset="0.999362"
         id="stop486" />
      <stop
         style="stop-opacity:1;stop-color:#dea76e"
         offset="1"
         id="stop488" />
    </linearGradient>
  </defs>
  <sodipodi:namedview
     id="namedview4"
     pagecolor="#ffffff"
     bordercolor="#000000"
     borderopacity="0.25"
     inkscape:showpageshadow="2"
     inkscape:pageopacity="0.0"
     inkscape:pagecheckerboard="0"
     inkscape:deskcolor="#d1d1d1" />
  <g
     id="g8"
     inkscape:groupmode="layer"
     inkscape:label="ink_ext_XXXXXX"
     transform="matrix(1.3333333,0,0,-1.3333333,0,666.66667)">
    <g
       id="g10"
       transform="scale(0.1)">
      <path
         d="M 5000.01,0 H 0 V 5000.01 H 5000.01 V 0"
         style="fill:#ffffff;fill-opacity:1;fill-rule:nonzero;stroke:none"
         id="path12" />
      <g
         id="g14">
        <g
           id="g16"
           clip-path="url(#clipPath20)">
          <path
             d="m 3240.21,1698.05 c -6.55,0 -13.09,2.56 -18,7.65 -9.58,9.94 -9.28,25.77 0.66,35.35 205.83,198.31 319.19,464.84 319.19,750.5 0,574.59 -467.46,1042.06 -1042.05,1042.06 -574.59,0 -1042.06,-467.47 -1042.06,-1042.06 0,-285.67 113.36,-552.2 319.19,-750.5 9.95,-9.58 10.24,-25.41 0.66,-35.35 -9.57,-9.95 -25.4,-10.24 -35.34,-0.66 -215.72,207.81 -334.51,487.14 -334.51,786.51 0,602.16 489.89,1092.06 1092.06,1092.06 602.16,0 1092.05,-489.9 1092.05,-1092.06 0,-299.37 -118.8,-578.7 -334.5,-786.51 -4.85,-4.67 -11.1,-6.99 -17.35,-6.99"
             style="fill:url(#linearGradient32);fill-opacity:1;fill-rule:nonzero;stroke:none"
             id="path34" />
        </g>
      </g>
      <g
         id="g36">
        <g
           id="g38"
           clip-path="url(#clipPath42)">
          <path
             d="m 2715.39,2595.13 c -1.79,0.09 -3.25,1.38 -3.68,3.01 l -0.13,0.48 c 0,0 -0.63,2.53 -1.85,7.3 -1.39,4.71 -2.61,11.7 -5.55,20.19 -3.02,8.45 -6.19,18.69 -11.68,29.63 -2.39,5.61 -5.2,11.37 -8.99,17.06 -3.52,5.76 -6.55,12.13 -11.27,17.84 -4.51,5.82 -8.42,12.3 -14.18,17.77 -5.24,5.7 -10.33,12.21 -16.4,16.92 -2.92,2.6 -5.84,5.22 -8.8,7.87 -2.93,2.67 -7.41,5.38 -11.1,8.12 -3.51,2.52 -7.02,5.07 -10.59,7.66 -3.78,2.17 -7.62,4.37 -11.44,6.58 -15.47,8.61 -32.51,15.21 -50.35,19.63 -8.79,2.7 -18.07,3.51 -27.23,5.06 -9.27,0.45 -18.55,1.22 -27.88,0.75 -18.61,-0.2 -37.3,-3.16 -54.76,-8.99 -8.9,-2.45 -17.25,-6.22 -25.74,-9.49 -7.98,-4.23 -16.29,-7.82 -23.52,-12.95 -7.68,-4.47 -14.35,-10.09 -21.29,-15.17 -6.66,-5.45 -12.05,-10.35 -18.19,-16.46 -2.99,-3.41 -5.94,-6.76 -8.84,-10.08 l -2.18,-2.47 -1.08,-1.22 -0.53,-0.62 -0.14,-0.16 c -0.07,-0.09 0.12,0.17 0.29,0.41 l -0.09,-0.11 -3.61,-4.69 c -5.01,-6.08 -9.17,-12.44 -13.11,-18.64 -7.53,-12.6 -13.79,-24.77 -18.12,-36.17 -4.39,-11.31 -7.63,-21.76 -9.67,-30.29 -0.93,-4.28 -1.88,-8.13 -2.75,-11.55 -0.58,-3.54 -1.09,-6.58 -1.49,-9.05 -0.8,-4.92 -1.24,-7.54 -1.24,-7.54 -0.35,-2.18 -2.39,-3.64 -4.57,-3.3 -1.76,0.29 -3.08,1.73 -3.3,3.42 0,0 -0.34,2.66 -0.98,7.59 -0.73,4.87 -1.72,12.16 -1.64,22.05 0.01,9.76 0.38,21.49 2.86,34.89 2.21,13.43 6.14,28.5 12.74,44.17 3.34,7.79 6.99,15.93 11.64,23.9 l 3.37,6.13 4.26,6.2 c 2.51,3.62 5.07,7.29 7.64,11.02 5.81,7.41 13.17,16.17 20.46,23.55 7.49,7.28 15.28,14.68 24.32,20.81 17.41,13.08 37.45,24.2 59.26,31.63 21.71,7.77 45.03,12.06 68.46,12.9 23.47,1.09 47.06,-2.2 69.22,-8.55 22.42,-5.69 42.97,-16.07 61.2,-27.9 4.52,-3.07 8.98,-6.1 13.41,-9.09 l 1.43,-1.07 0.36,-0.3 0.66,-0.6 1.39,-1.18 2.75,-2.35 5.39,-4.7 c 3.57,-3.36 6.96,-5.93 10.6,-9.86 3.54,-3.93 7.07,-7.84 10.54,-11.68 13.77,-15.39 23.23,-30.95 30.62,-46.49 4.18,-7.42 6.69,-15.24 9.35,-22.46 2.76,-7.16 4.56,-14.22 5.91,-20.94 3.59,-13.14 4.1,-25.05 4.93,-34.6 0.91,-9.57 -0.42,-17.23 -0.44,-22.25 -0.26,-5.08 -0.41,-7.77 -0.41,-7.77 -0.15,-2.21 -2.03,-3.92 -4.25,-3.8 z m -37.66,247.89 c -139.5,98.14 -332.15,64.65 -430.3,-74.86 -98.17,-139.48 -64.65,-332.14 74.85,-430.3 139.5,-98.15 332.12,-64.65 430.31,74.84 98.15,139.5 64.65,332.14 -74.86,430.32"
             style="fill:url(#linearGradient54);fill-opacity:1;fill-rule:nonzero;stroke:none"
             id="path56" />
        </g>
      </g>
      <g
         id="g58">
        <g
           id="g60"
           clip-path="url(#clipPath64)">
          <path
             d="m 2338.29,2703.8 0.14,0.18 c 0.29,0.41 0.08,0.12 -0.14,-0.18"
             style="fill:url(#linearGradient76);fill-opacity:1;fill-rule:nonzero;stroke:none"
             id="path78" />
        </g>
      </g>
      <g
         id="g80">
        <g
           id="g82"
           clip-path="url(#clipPath86)">
          <path
             d="m 2150.26,2093.4 c -274.07,192.87 -340.14,572.7 -147.28,846.77 192.84,274.07 572.69,340.15 846.77,147.29 274.05,-192.85 340.14,-572.71 147.29,-846.79 -192.86,-274.04 -572.71,-340.11 -846.78,-147.27 z m 723.11,1027.64 c -292.58,205.88 -698.09,135.34 -903.96,-157.24 -205.88,-292.58 -135.35,-698.09 157.23,-903.98 292.6,-205.87 698.11,-135.34 903.98,157.24 205.86,292.58 135.36,698.1 -157.25,903.98"
             style="fill:url(#linearGradient98);fill-opacity:1;fill-rule:nonzero;stroke:none"
             id="path100" />
        </g>
      </g>
      <g
         id="g102">
        <g
           id="g104"
           clip-path="url(#clipPath108)">
          <path
             d="m 2291.84,2294.59 c -163.11,114.79 -202.45,340.89 -87.67,504 114.79,163.13 340.88,202.46 503.98,87.67 163.14,-114.79 202.48,-340.87 87.7,-503.99 -114.79,-163.11 -340.88,-202.45 -504.01,-87.68 z m -215.74,562.05 c -9.24,6.49 -11.48,19.35 -4.97,28.59 l 6.57,9.32 c 6.51,9.27 19.35,11.5 28.6,4.99 l 80.18,-56.42 c -5.45,-6.78 -10.8,-13.7 -15.87,-20.91 -5.08,-7.2 -9.78,-14.56 -14.32,-21.99 z m 655.69,63.2 c -162.88,114.59 -382.07,91.13 -517.77,-45.89 l -84.1,59.17 c -27.76,19.54 -66.25,12.84 -85.79,-14.95 l -6.56,-9.31 c -19.55,-27.78 -12.86,-66.27 14.91,-85.8 l 84.09,-59.17 c -83.15,-174.01 -31.23,-388.24 131.64,-502.85 181.63,-127.82 433.4,-84.02 561.2,97.6 127.81,181.63 84,433.39 -97.62,561.2"
             style="fill:url(#linearGradient120);fill-opacity:1;fill-rule:nonzero;stroke:none"
             id="path122" />
        </g>
      </g>
      <g
         id="g124"
         transform="scale(10)">
        <text
           xml:space="preserve"
           transform="matrix(1,0,0,-1,186.768,158.602)"
           style="font-variant:normal;font-weight:900;font-size:23.7717px;font-family:Montserrat;-inkscape-font-specification:Montserrat-Black;writing-mode:lr-tb;fill:#b37a4b;fill-opacity:1;fill-rule:nonzero;stroke:none"
           id="text128"><tspan
             x="0 20.871599 44.642586 64.396965 84.150864 105.30718"
             y="0"
             sodipodi:role="line"
             id="tspan126">COFFEE</tspan></text>
        <text
           xml:space="preserve"
           transform="matrix(1,0,0,-1,194.018,145.0629)"
           style="font-variant:normal;font-weight:600;font-size:11.4104px;font-family:Montserrat;-inkscape-font-specification:Montserrat-SemiBold;writing-mode:lr-tb;fill:#b37a4b;fill-opacity:1;fill-rule:nonzero;stroke:none"
           id="text132"><tspan
             x="0 9.8471756 21.326185 32.279781 42.823288 48.528362 58.078651 66.658737 77.932152 88.715347 99.657722"
             y="0"
             sodipodi:role="line"
             id="tspan130">YOUR SLOGAN</tspan></text>
        <text
           xml:space="preserve"
           transform="matrix(1,0,0,-1,186.768,158.602)"
           style="font-variant:normal;font-weight:900;font-size:23.7717px;font-family:Montserrat;-inkscape-font-specification:Montserrat-Black;writing-mode:lr-tb;fill:#b37a4b;fill-opacity:1;fill-rule:nonzero;stroke:none"
           id="text136"><tspan
             x="0 20.871599 44.642586 64.396965 84.150864 105.30718"
             y="0"
             sodipodi:role="line"
             id="tspan134">COFFEE</tspan></text>
        <text
           xml:space="preserve"
           transform="matrix(1,0,0,-1,194.018,145.0629)"
           style="font-variant:normal;font-weight:600;font-size:11.4104px;font-family:Montserrat;-inkscape-font-specification:Montserrat-SemiBold;writing-mode:lr-tb;fill:#b37a4b;fill-opacity:1;fill-rule:nonzero;stroke:none"
           id="text140"><tspan
             x="0 9.8471756 21.326185 32.279781 42.823288 48.528362 58.078651 66.658737 77.932152 88.715347 99.657722"
             y="0"
             sodipodi:role="line"
             id="tspan138">YOUR SLOGAN</tspan></text>
      </g>
      <g
         id="g142">
        <g
           id="g144"
           clip-path="url(#clipPath148)">
          <path
             d="m 1962.3,1708.45 c -19.97,0 -34.47,-15.93 -34.47,-38.04 0,-22.34 14.5,-38.52 34.47,-38.52 11.88,0 26.86,7.38 37.8,19.03 l 31.85,-34 c -18.54,-20.21 -46.83,-33.28 -72.51,-33.28 -51.11,0 -88.19,36.37 -88.19,86.06 0,48.97 38.03,84.63 90.34,84.63 25.43,0 53.25,-11.89 70.36,-30.43 l -31.85,-37.8 c -9.99,13.55 -24.96,22.35 -37.8,22.35"
             style="fill:url(#linearGradient160);fill-opacity:1;fill-rule:nonzero;stroke:none"
             id="path162" />
        </g>
      </g>
      <g
         id="g164">
        <g
           id="g166"
           clip-path="url(#clipPath170)">
          <path
             d="m 2136.54,1669.22 c 0,-22.82 16.64,-39.7 35.66,-39.7 19.02,0 34.24,16.88 34.24,39.7 0,22.82 -15.22,39.23 -34.24,39.23 -19.26,0 -35.66,-16.41 -35.66,-39.23 z m 126.48,0.24 c 0,-49.45 -38.52,-85.82 -91.53,-85.82 -53.01,0 -91.53,36.14 -91.53,85.82 0,49.45 38.52,84.87 91.53,84.87 53.01,0 91.53,-35.66 91.53,-84.87"
             style="fill:url(#linearGradient182);fill-opacity:1;fill-rule:nonzero;stroke:none"
             id="path184" />
        </g>
      </g>
      <g
         id="g186">
        <g
           id="g188"
           clip-path="url(#clipPath192)">
          <path
             d="m 2460.07,1752.67 v -41.85 h -78.92 v -28.76 h 73.93 v -41.84 h -73.93 v -54.2 h -55.16 v 166.65 h 134.08"
             style="fill:url(#linearGradient204);fill-opacity:1;fill-rule:nonzero;stroke:none"
             id="path206" />
        </g>
      </g>
      <g
         id="g208">
        <g
           id="g210"
           clip-path="url(#clipPath214)">
          <path
             d="m 2657.62,1752.67 v -41.85 h -78.93 v -28.76 h 73.94 v -41.84 h -73.94 v -54.2 h -55.15 v 166.65 h 134.08"
             style="fill:url(#linearGradient226);fill-opacity:1;fill-rule:nonzero;stroke:none"
             id="path228" />
        </g>
      </g>
      <g
         id="g230">
        <g
           id="g232"
           clip-path="url(#clipPath236)">
          <path
             d="m 2862.05,1752.67 v -41.85 h -85.82 v -20.44 h 77.98 v -41.84 h -77.98 v -20.69 h 87.96 v -41.83 h -143.12 v 166.65 h 140.98"
             style="fill:url(#linearGradient248);fill-opacity:1;fill-rule:nonzero;stroke:none"
             id="path250" />
        </g>
      </g>
      <g
         id="g252">
        <g
           id="g254"
           clip-path="url(#clipPath258)">
          <path
             d="m 3073.61,1752.67 v -41.85 h -85.82 v -20.44 h 77.98 v -41.84 h -77.98 v -20.69 h 87.96 v -41.83 h -143.11 v 166.65 h 140.97"
             style="fill:url(#linearGradient270);fill-opacity:1;fill-rule:nonzero;stroke:none"
             id="path272" />
        </g>
      </g>
      <g
         id="g274">
        <g
           id="g276"
           clip-path="url(#clipPath280)">
          <path
             d="m 1987.43,1476.43 v -25.8 h -18.03 v 25.35 l -29.56,54.55 h 18.15 l 20.43,-35.84 19.97,35.84 h 18.15 l -29.11,-54.1"
             style="fill:url(#linearGradient292);fill-opacity:1;fill-rule:nonzero;stroke:none"
             id="path294" />
        </g>
      </g>
      <g
         id="g296">
        <g
           id="g298"
           clip-path="url(#clipPath302)">
          <path
             d="m 2060.22,1490.59 c 0,-14.05 11.3,-25 24.66,-25 13.35,0 24.19,10.95 24.19,25 0,14.03 -10.84,24.76 -24.19,24.76 -13.47,0 -24.66,-10.73 -24.66,-24.76 z m 67.34,0 c 0,-23.06 -18.49,-40.76 -42.91,-40.76 -24.43,0 -42.92,17.58 -42.92,40.76 0,23.28 18.49,40.51 42.92,40.51 24.42,0 42.91,-17.35 42.91,-40.51"
             style="fill:url(#linearGradient314);fill-opacity:1;fill-rule:nonzero;stroke:none"
             id="path316" />
        </g>
      </g>
      <g
         id="g318">
        <g
           id="g320"
           clip-path="url(#clipPath324)">
          <path
             d="m 2197.04,1465.59 c 10.73,0 17.81,6.96 17.81,18.48 v 46.46 h 18.03 v -46.46 c 0,-21.11 -13.81,-34.24 -35.84,-34.24 -22.14,0 -36.29,13.13 -36.29,34.24 v 46.46 h 18.03 v -46.46 c 0,-11.52 7.53,-18.48 18.26,-18.48"
             style="fill:url(#linearGradient336);fill-opacity:1;fill-rule:nonzero;stroke:none"
             id="path338" />
        </g>
      </g>
      <g
         id="g340">
        <g
           id="g342"
           clip-path="url(#clipPath346)">
          <path
             d="m 2289.8,1488.53 h 16.66 c 9.94,0 15.64,4.57 15.64,13.7 0,8.89 -5.7,13.35 -15.64,13.35 h -16.66 z m 31.04,-37.9 -12.67,22.84 h -18.37 v -22.84 h -18.03 v 79.9 h 34.69 c 20.89,0 32.76,-10.04 32.76,-27.74 0,-12.32 -5.25,-21.23 -14.95,-25.79 l 17,-26.37 h -20.43"
             style="fill:url(#linearGradient358);fill-opacity:1;fill-rule:nonzero;stroke:none"
             id="path360" />
        </g>
      </g>
      <g
         id="g362">
        <g
           id="g364"
           clip-path="url(#clipPath368)">
          <path
             d="m 2461.99,1515.92 c -6.05,0 -10.16,-2.17 -10.16,-6.51 0,-14.72 42.57,-6.5 42.46,-35.26 0,-15.64 -13.59,-24.08 -31.28,-24.08 -13.12,0 -26.25,5.02 -35.27,12.66 l 7.2,14.73 c 8.21,-7.3 19.85,-11.99 28.3,-11.99 7.42,0 11.87,2.74 11.87,7.65 0,15.06 -42.57,6.27 -42.57,34.59 0,14.49 12.44,23.62 30.93,23.62 11.19,0 22.37,-3.43 30.36,-8.67 l -6.96,-14.95 c -8.45,5.01 -18.49,8.21 -24.88,8.21"
             style="fill:url(#linearGradient380);fill-opacity:1;fill-rule:nonzero;stroke:none"
             id="path382" />
        </g>
      </g>
      <g
         id="g384">
        <g
           id="g386"
           clip-path="url(#clipPath390)">
          <path
             d="m 2547.79,1530.53 v -64.14 h 34.24 v -15.76 h -52.27 v 79.9 h 18.03"
             style="fill:url(#linearGradient402);fill-opacity:1;fill-rule:nonzero;stroke:none"
             id="path404" />
        </g>
      </g>
      <g
         id="g406">
        <g
           id="g408"
           clip-path="url(#clipPath412)">
          <path
             d="m 2628.34,1490.59 c 0,-14.05 11.3,-25 24.65,-25 13.36,0 24.2,10.95 24.2,25 0,14.03 -10.84,24.76 -24.2,24.76 -13.47,0 -24.65,-10.73 -24.65,-24.76 z m 67.34,0 c 0,-23.06 -18.49,-40.76 -42.92,-40.76 -24.42,0 -42.91,17.58 -42.91,40.76 0,23.28 18.49,40.51 42.91,40.51 24.43,0 42.92,-17.35 42.92,-40.51"
             style="fill:url(#linearGradient424);fill-opacity:1;fill-rule:nonzero;stroke:none"
             id="path426" />
        </g>
      </g>
      <g
         id="g428">
        <g
           id="g430"
           clip-path="url(#clipPath434)">
          <path
             d="m 2781.93,1490.93 h 15.64 v -30.71 c -8.45,-6.16 -21.34,-10.39 -32.41,-10.39 -24.2,0 -42.57,17.58 -42.57,40.76 0,23.05 18.71,40.51 43.59,40.51 11.88,0 23.98,-4.57 32.07,-11.64 l -10.15,-12.9 c -5.94,5.48 -14.15,8.9 -21.92,8.9 -14.15,0 -25.11,-10.84 -25.11,-24.87 0,-14.16 11.08,-25 25.23,-25 4.79,0 10.5,1.71 15.63,4.33 v 21.01"
             style="fill:url(#linearGradient446);fill-opacity:1;fill-rule:nonzero;stroke:none"
             id="path448" />
        </g>
      </g>
      <g
         id="g450">
        <g
           id="g452"
           clip-path="url(#clipPath456)">
          <path
             d="m 2883.04,1480.65 -12.56,31.05 -12.67,-31.05 z m 5.82,-14.49 h -36.98 l -6.28,-15.53 h -18.61 l 34.7,79.9 h 18.6 l 34.13,-79.9 h -19.29 l -6.27,15.53"
             style="fill:url(#linearGradient468);fill-opacity:1;fill-rule:nonzero;stroke:none"
             id="path470" />
        </g>
      </g>
      <g
         id="g472">
        <g
           id="g474"
           clip-path="url(#clipPath478)">
          <path
             d="m 2961.98,1530.53 38.81,-51.36 v 51.36 h 17.12 v -79.9 h -16.44 l -38.69,51.25 v -51.25 h -17.23 v 79.9 h 16.43"
             style="fill:url(#linearGradient490);fill-opacity:1;fill-rule:nonzero;stroke:none"
             id="path492" />
        </g>
      </g>
    </g>
  </g>
</svg>
