<?xml version="1.0" standalone="no"?>
<!DOCTYPE svg PUBLIC "-//W3C//DTD SVG 20010904//EN"
 "http://www.w3.org/TR/2001/REC-SVG-20010904/DTD/svg10.dtd">
<svg version="1.0" xmlns="http://www.w3.org/2000/svg"
 width="1152.000000pt" height="1152.000000pt" viewBox="0 0 1152.000000 1152.000000"
 preserveAspectRatio="xMidYMid meet">
<metadata>
Created by potrace 1.14, written by Peter Selinger 2001-2017
</metadata>
<g transform="translate(0.000000,1152.000000) scale(0.100000,-0.100000)"
fill="#000000" stroke="none">
<path d="M5552 10544 c-50 -26 -139 -118 -238 -249 -51 -67 -99 -127 -108
-134 -9 -7 -16 -18 -16 -23 0 -6 -35 -45 -79 -87 -114 -113 -175 -125 -300
-61 -31 15 -80 44 -110 64 -29 20 -57 36 -61 36 -5 0 -10 4 -12 8 -1 4 -39 32
-83 62 -44 30 -81 58 -83 63 -2 4 -8 7 -14 7 -5 0 -23 10 -40 21 -54 39 -152
81 -193 84 -60 3 -107 -24 -152 -90 -20 -29 -86 -182 -99 -230 -1 -5 -17 -50
-34 -100 -17 -49 -32 -94 -34 -100 -22 -76 -86 -192 -127 -233 -71 -70 -162
-84 -294 -48 -60 17 -70 21 -135 49 -68 30 -95 39 -135 43 -22 2 -71 12 -110
20 -38 9 -102 16 -140 16 -119 1 -161 -34 -191 -157 -4 -16 -8 -106 -10 -200
-6 -434 -40 -541 -184 -596 -66 -25 -133 -31 -350 -34 -214 -3 -287 -10 -340
-31 -40 -17 -90 -62 -90 -80 0 -7 -5 -14 -11 -16 -22 -7 -14 -174 12 -259 13
-44 40 -141 43 -154 1 -5 5 -16 9 -22 5 -7 6 -13 3 -13 -3 0 -1 -12 5 -27 6
-16 12 -37 14 -48 4 -21 11 -57 24 -115 12 -53 5 -161 -12 -200 -16 -37 -81
-103 -91 -93 -3 4 -6 2 -6 -4 0 -10 -176 -96 -197 -96 -7 0 -13 -4 -13 -7 0
-4 -15 -11 -32 -15 -18 -4 -35 -9 -38 -10 -3 -1 -14 -5 -25 -10 -11 -4 -52
-20 -90 -36 -197 -76 -266 -148 -260 -268 4 -73 27 -123 117 -256 41 -60 86
-128 101 -150 15 -22 30 -45 34 -50 49 -67 106 -192 111 -245 7 -71 -26 -136
-108 -212 -63 -59 -130 -114 -180 -148 -12 -8 -30 -22 -40 -30 -10 -8 -31 -24
-46 -35 -94 -69 -111 -83 -154 -131 -118 -131 -87 -242 115 -411 l50 -42 -175
-1 c-96 -1 -349 -1 -562 0 l-388 0 0 -89 0 -89 5743 0 c3158 0 5747 4 5752 8
6 5 10 44 10 87 l-1 78 -683 2 c-376 2 -686 5 -689 8 -3 3 5 13 19 22 45 32
147 141 173 186 73 124 25 210 -229 413 -290 232 -351 323 -306 459 16 46 86
183 107 206 8 8 14 18 14 21 0 4 24 42 54 85 70 102 116 180 116 198 0 8 4 15
9 15 8 0 19 36 28 95 17 103 -36 188 -149 239 -72 32 -196 73 -248 81 -35 6
-185 56 -239 80 -68 31 -103 64 -127 120 -18 42 -26 162 -12 171 5 3 6 9 4 12
-4 6 8 78 18 117 2 6 6 27 11 48 4 20 11 40 16 43 5 3 7 9 4 14 -4 7 5 43 22
90 3 8 7 20 8 25 2 6 15 46 30 90 33 95 42 213 20 254 -47 86 -129 120 -295
124 -47 1 -88 7 -92 12 -5 6 -8 5 -8 -2 0 -9 -7 -10 -24 -3 -13 5 -26 6 -29 4
-7 -8 -272 -1 -272 6 0 1 -15 4 -33 6 -109 16 -185 91 -207 206 -4 18 -8 127
-10 242 -3 178 -8 272 -19 346 -18 122 -80 173 -206 172 -60 0 -210 -26 -330
-57 -199 -50 -358 -63 -416 -33 -61 33 -120 111 -160 213 -6 17 -33 84 -58
150 -98 250 -119 293 -169 351 -21 24 -47 44 -58 44 -10 0 -19 5 -19 11 0 5
-4 8 -9 5 -5 -3 -26 -8 -47 -12 -21 -3 -59 -17 -85 -29 -60 -31 -242 -145
-250 -157 -3 -6 -10 -10 -15 -11 -5 0 -31 -15 -59 -32 -142 -90 -242 -129
-310 -120 -91 11 -172 83 -368 322 -118 145 -142 170 -204 214 -54 38 -124 47
-171 23z m106 -667 c24 -2 45 0 48 5 3 5 10 5 16 2 5 -4 51 -8 102 -10 50 -2
114 -6 141 -9 28 -3 73 -7 100 -10 73 -7 185 -22 225 -30 30 -6 56 -11 128
-25 29 -5 72 -15 95 -21 23 -7 49 -13 57 -15 45 -7 168 -42 189 -54 12 -6 21
-9 21 -6 0 12 310 -102 447 -165 110 -49 327 -160 344 -175 8 -8 19 -14 22
-14 25 0 337 -208 458 -306 37 -29 69 -50 73 -47 3 4 6 2 6 -4 0 -6 35 -39 78
-74 73 -60 374 -355 417 -409 11 -14 45 -54 75 -90 30 -36 66 -81 80 -99 14
-18 30 -38 36 -44 33 -37 190 -270 257 -381 70 -116 255 -477 261 -509 2 -6 8
-25 15 -42 46 -110 110 -284 122 -330 4 -16 17 -61 29 -100 11 -38 23 -77 25
-85 52 -217 78 -340 90 -425 3 -22 8 -53 10 -70 28 -197 39 -370 39 -628 -1
-125 -3 -229 -5 -231 -7 -7 -31 -8 -102 -7 l-67 1 5 88 c9 154 10 287 2 299
-4 6 -3 14 3 18 6 4 7 11 4 17 -4 6 -9 52 -11 102 -4 90 -9 161 -12 161 -1 0
-4 29 -6 64 -2 34 -6 75 -9 90 -3 14 -8 44 -11 66 -3 22 -8 51 -10 65 -6 36
-42 208 -54 254 -5 22 -8 44 -5 48 3 4 0 8 -6 8 -7 0 -10 6 -7 14 3 8 3 17 -1
21 -4 4 -7 10 -8 13 0 4 -6 27 -13 52 -7 25 -15 52 -16 60 -6 25 -84 254 -95
275 -10 20 -32 74 -35 88 -2 4 -3 8 -5 10 -1 1 -3 11 -5 21 -2 10 -7 22 -12
25 -4 3 -9 12 -11 20 -5 24 -123 262 -174 350 -26 46 -48 88 -48 92 0 5 -3 9
-7 9 -5 0 -13 10 -19 23 -34 67 -46 87 -55 87 -5 0 -8 3 -7 8 2 4 -19 37 -45
73 -26 37 -47 71 -47 77 0 6 -4 12 -8 14 -5 2 -35 39 -68 83 -32 44 -61 82
-64 85 -3 3 -28 32 -55 64 -140 168 -299 326 -504 502 -37 32 -202 158 -241
184 -12 8 -33 23 -45 33 -13 9 -28 17 -33 17 -6 0 -12 4 -14 8 -6 15 -216 145
-298 185 -14 6 -27 14 -30 17 -9 9 -85 44 -92 42 -5 -1 -8 2 -8 8 0 6 -3 9 -7
8 -5 -1 -44 15 -88 36 -74 35 -122 57 -135 61 -3 1 -17 7 -32 13 -50 21 -278
102 -296 106 -9 1 -24 5 -32 8 -45 15 -91 29 -107 33 -18 3 -90 21 -128 31
-28 7 -53 12 -200 39 -160 28 -252 39 -430 50 -202 13 -505 4 -680 -20 -22 -3
-58 -8 -80 -11 -22 -3 -80 -12 -130 -21 -49 -8 -99 -17 -110 -18 -11 -2 -20
-4 -20 -5 0 -2 -34 -9 -67 -14 -15 -3 -31 -7 -36 -10 -5 -3 -22 -8 -38 -11
-16 -3 -33 -7 -39 -9 -5 -2 -23 -6 -40 -10 -103 -26 -359 -116 -505 -179 -103
-44 -316 -151 -420 -212 -56 -33 -276 -175 -305 -197 -88 -68 -282 -223 -315
-254 -79 -70 -294 -288 -345 -348 -27 -33 -55 -64 -60 -70 -6 -6 -33 -40 -60
-76 -28 -36 -52 -67 -55 -70 -16 -15 -116 -158 -172 -245 -117 -182 -233 -400
-307 -575 -18 -41 -36 -84 -41 -95 -12 -29 -23 -58 -25 -71 -2 -6 -10 -27 -18
-45 -13 -29 -65 -181 -73 -214 -2 -5 -10 -37 -20 -70 -9 -33 -17 -64 -18 -70
-1 -5 -5 -16 -10 -23 -4 -7 -6 -16 -3 -19 3 -3 2 -16 -3 -29 -6 -14 -12 -35
-14 -47 -3 -12 -7 -33 -11 -47 -8 -36 -34 -178 -41 -225 -3 -22 -8 -47 -9 -55
-3 -13 -6 -46 -21 -175 -16 -150 -22 -514 -11 -632 l5 -53 -89 0 c-64 0 -89 4
-90 13 -1 6 -3 72 -4 146 -2 73 -6 139 -9 147 -3 8 -2 14 2 14 4 0 7 48 8 108
1 136 12 288 30 412 3 25 7 59 9 75 2 17 6 44 10 60 3 17 9 46 11 65 3 19 17
84 30 145 13 60 26 119 29 130 7 31 21 84 44 160 12 39 23 77 25 85 11 45 94
269 129 350 5 14 11 27 12 30 1 3 9 22 18 43 9 20 16 38 16 40 0 9 163 319
204 387 86 145 277 424 307 450 3 3 21 25 40 50 19 25 39 50 45 56 5 6 35 40
65 75 71 82 267 277 354 354 38 33 73 65 80 70 275 242 735 517 1111 662 86
33 273 100 305 108 8 2 40 11 70 20 30 9 62 17 70 19 8 2 35 9 60 16 25 7 54
14 64 16 11 2 63 12 115 23 53 11 116 23 141 27 25 3 54 8 65 10 154 23 288
35 428 39 65 1 120 5 123 8 3 3 11 4 17 1 7 -2 31 -5 55 -7z m28 -319 c3 -4
18 -2 34 2 16 4 31 6 33 3 3 -2 45 -6 94 -8 149 -7 279 -23 453 -56 30 -6 60
-12 65 -13 6 -2 28 -6 50 -10 22 -5 61 -14 88 -21 26 -8 47 -12 47 -10 0 2 16
-3 35 -11 19 -8 38 -13 42 -12 5 0 15 -2 23 -5 8 -3 53 -18 100 -33 669 -211
1312 -656 1762 -1219 107 -133 111 -139 123 -156 118 -176 188 -285 211 -328
16 -30 35 -61 42 -69 7 -7 10 -18 7 -23 -4 -5 -2 -9 2 -9 11 0 183 -354 183
-375 0 -4 6 -21 14 -38 26 -59 56 -142 61 -166 2 -12 9 -29 16 -37 6 -8 9 -14
5 -14 -3 0 0 -16 8 -35 9 -20 15 -39 16 -43 0 -4 6 -25 12 -47 6 -22 12 -42
13 -45 0 -3 14 -57 29 -120 15 -63 29 -122 31 -130 1 -8 6 -33 10 -55 15 -77
24 -138 31 -200 8 -74 13 -110 14 -110 3 0 10 -123 14 -248 2 -71 7 -131 9
-134 3 -2 1 -18 -3 -34 -5 -18 -5 -29 1 -29 6 0 7 -5 4 -10 -4 -6 -8 -61 -10
-122 -3 -61 -6 -113 -9 -115 -3 -3 -1209 -6 -1364 -3 -18 0 -5 14 60 67 103
83 213 196 264 271 21 31 42 59 45 62 6 5 71 138 84 175 10 24 12 33 18 65 3
14 6 25 8 25 1 0 2 36 3 80 4 152 -72 284 -194 337 -103 45 -128 50 -271 52
-99 1 -106 2 -103 21 4 33 15 138 19 170 10 98 -58 206 -160 256 l-50 24
-1985 1 c-1197 0 -1999 -3 -2020 -8 -98 -27 -168 -92 -195 -183 -16 -52 -11
-197 10 -302 9 -42 26 -142 27 -153 1 -9 38 -143 60 -215 47 -157 184 -474
209 -483 5 -2 9 -10 9 -18 0 -8 34 -66 75 -129 41 -63 69 -115 62 -115 -15 -1
-2038 -1 -2053 0 -31 1 -23 554 11 800 18 123 25 173 30 190 2 8 7 31 10 50 5
28 31 144 60 260 12 47 46 157 74 235 18 50 33 95 35 100 2 6 8 23 14 38 7 16
12 31 12 33 0 3 11 29 24 57 13 29 34 77 47 107 51 120 229 446 251 461 6 3 9
9 9 13 -3 14 186 278 279 389 143 172 307 337 480 482 52 44 97 83 98 87 2 5
10 8 18 8 8 0 14 3 14 8 0 4 17 18 38 32 20 14 42 32 49 40 7 8 13 11 13 5 0
-7 3 -7 8 0 25 35 286 197 460 286 72 37 132 65 132 62 0 -4 8 1 18 9 28 25
417 173 507 194 6 1 55 14 109 28 55 15 113 29 130 32 17 3 51 10 76 15 25 6
54 12 65 14 37 7 100 16 135 20 19 3 51 7 70 10 51 8 132 15 234 20 49 2 90 6
92 7 5 6 174 1 180 -4z m2429 -3238 c83 -38 103 -120 58 -240 -3 -8 -7 -21 -9
-28 -1 -8 -9 -21 -16 -30 -8 -10 -19 -28 -26 -42 -22 -43 -124 -154 -205 -224
-99 -84 -329 -218 -397 -231 -8 -2 -16 -4 -17 -5 -2 -2 -6 -3 -10 -4 -5 -1
-14 -5 -20 -9 -7 -5 -13 -5 -13 -2 0 9 22 49 30 55 15 11 125 209 180 323 53
112 133 321 156 407 9 33 13 36 64 46 75 14 173 8 225 -16z"/>
<path d="M5669 9166 c-5 -23 -4 -35 9 -60 21 -44 53 -136 60 -176 7 -44 7
-177 -1 -210 -3 -14 -8 -36 -11 -49 -11 -50 -65 -150 -127 -231 -63 -85 -77
-106 -108 -165 -9 -16 -20 -33 -24 -36 -5 -3 -8 -8 -7 -10 1 -2 -4 -17 -11
-34 -67 -164 -83 -369 -40 -519 24 -86 74 -196 114 -250 51 -71 113 -132 187
-187 42 -31 162 -89 183 -89 9 0 19 -5 22 -10 4 -6 11 -8 16 -5 5 3 -13 27
-39 53 -61 61 -122 136 -122 151 0 6 -4 11 -9 11 -8 0 -62 110 -68 140 -18 87
-19 119 -9 189 18 122 68 216 222 413 100 128 132 181 171 283 49 127 59 245
28 347 -8 29 -16 55 -17 58 -11 50 -89 161 -155 219 -51 45 -180 131 -198 131
-4 0 -20 9 -36 21 -16 11 -30 18 -30 15z"/>
<path d="M5167 8978 c-2 -7 0 -20 4 -28 31 -55 44 -212 25 -290 -8 -32 -63
-146 -80 -162 -45 -47 -112 -175 -131 -253 -23 -96 -26 -190 -8 -280 8 -38 15
-76 16 -82 0 -7 4 -13 9 -13 5 0 7 -3 5 -7 -9 -15 62 -128 111 -178 51 -51
136 -104 148 -93 3 4 -1 14 -10 23 -24 25 -74 100 -88 132 -63 152 -39 274 89
454 40 57 80 112 88 122 8 9 15 20 15 24 0 3 11 29 24 57 78 167 49 354 -74
474 -66 66 -137 115 -143 100z"/>
<path d="M6109 7955 c-132 -185 -171 -260 -171 -329 0 -54 18 -100 57 -148 13
-15 26 -24 29 -21 3 4 6 2 6 -4 0 -6 19 -23 41 -38 23 -15 39 -23 35 -17 -15
24 -34 80 -41 117 -2 11 -4 22 -5 25 -7 16 -3 61 7 99 11 38 77 146 109 178
48 48 76 192 49 256 -11 28 -12 28 -116 -118z"/>
<path d="M805 4947 c-132 -48 -228 -180 -253 -347 -10 -65 -6 -225 7 -280 21
-85 58 -155 112 -211 41 -42 99 -79 119 -76 3 0 15 -5 28 -12 30 -16 145 -22
208 -10 53 10 155 48 164 61 10 14 4 133 -6 129 -5 -2 -27 -12 -49 -24 -22
-11 -47 -22 -55 -23 -8 -2 -40 -8 -70 -14 -149 -27 -250 29 -296 167 -28 84
-28 268 0 356 22 67 76 129 132 153 45 19 147 21 197 5 l33 -11 -1 -68 0 -67
45 -1 c83 -1 80 -5 80 116 0 93 -3 109 -19 124 -11 10 -24 15 -30 12 -5 -4
-12 -2 -15 3 -22 35 -252 47 -331 18z"/>
<path d="M1857 4954 c-1 -2 -18 -6 -37 -9 -46 -8 -111 -47 -156 -93 -38 -38
-91 -139 -100 -189 -3 -15 -9 -42 -13 -59 -12 -45 -6 -261 9 -314 7 -25 13
-49 14 -55 1 -5 12 -30 25 -55 44 -88 107 -142 200 -170 83 -25 204 -15 247
21 8 6 14 8 14 5 0 -4 6 -1 14 6 8 8 28 26 46 41 53 45 99 147 126 277 6 31 6
218 0 245 -2 11 -9 42 -16 70 -38 167 -151 271 -304 278 -36 2 -67 2 -69 1z
m130 -148 c87 -45 123 -140 124 -326 1 -228 -76 -351 -219 -347 -51 2 -66 7
-98 33 -41 33 -78 97 -89 154 -14 75 -15 277 -1 324 8 25 12 46 8 46 -3 0 2 8
11 18 8 9 17 22 19 27 6 23 45 59 81 75 44 20 122 19 164 -4z"/>
<path d="M2605 4877 l0 -62 46 -3 46 -3 -3 -322 c-1 -177 -3 -330 -3 -339 -1
-14 -9 -18 -41 -16 -22 1 -43 -2 -47 -6 -12 -11 -11 -116 1 -117 6 -1 54 -2
106 -3 52 -1 101 -5 108 -9 6 -5 12 -4 12 1 0 4 26 7 58 6 l57 -2 -1 51 c-1
29 -2 58 -3 65 -1 8 -15 12 -43 11 -24 -1 -48 -1 -54 0 -6 1 -10 48 -10 134
l1 132 68 3 67 3 0 -51 0 -50 60 0 60 0 0 33 c1 17 2 86 3 152 l2 120 -60 0
-60 0 -3 -42 -3 -41 -67 2 -67 3 1 137 c1 75 3 139 6 142 7 7 228 8 235 0 3
-3 6 -28 6 -55 0 -56 1 -57 72 -56 l50 0 0 119 0 120 -300 2 -301 2 1 -61z"/>
<path d="M3496 4930 c-2 -3 -4 -31 -5 -62 l-2 -58 43 -1 c24 -1 46 -1 51 0 4
1 6 -153 4 -341 l-3 -343 -24 -2 c-14 0 -36 -1 -50 -2 -24 -1 -25 -4 -24 -54
0 -29 3 -58 6 -63 9 -13 328 -10 337 4 3 6 6 35 6 64 l-1 52 -55 -1 -56 0 1
133 1 134 67 0 67 0 -1 -37 c0 -21 0 -43 1 -49 1 -7 24 -12 61 -13 70 -1 62
-21 62 173 0 70 -4 131 -9 135 -13 12 -114 1 -112 -12 1 -7 1 -25 0 -42 l-1
-30 -65 0 c-51 0 -65 3 -66 15 -1 19 -1 251 0 265 1 11 226 13 237 2 4 -4 7
-30 8 -59 l1 -52 50 -1 c28 0 55 1 61 3 8 2 12 38 13 99 1 52 2 98 3 102 4 36
3 36 -219 40 -120 1 -255 4 -301 5 -46 1 -85 -1 -86 -4z"/>
<path d="M4389 4925 c-7 -2 -4 -117 3 -121 15 -10 58 -12 58 -3 0 5 7 6 15 3
12 -5 14 -55 12 -345 -1 -217 -6 -339 -12 -340 -5 -1 -28 -1 -50 0 l-40 1 2
-52 c0 -29 2 -58 2 -65 1 -9 78 -12 311 -13 l311 0 -4 35 c-2 19 -1 35 2 35 9
0 7 154 -2 161 -4 3 -33 5 -65 5 l-57 -1 -1 -50 c-1 -27 -2 -52 -3 -55 -1 -5
-225 -6 -249 -1 -4 0 -7 64 -7 141 l0 141 60 -3 59 -3 0 -47 -1 -48 62 0 63 0
-1 155 -1 155 -58 0 c-61 0 -61 0 -60 -55 l1 -31 -56 3 c-30 1 -58 4 -61 7 -3
3 -5 38 -4 78 0 40 1 101 1 135 1 60 2 62 24 55 12 -4 66 -8 119 -7 59 0 98
-4 99 -10 0 -5 1 -32 1 -58 l0 -48 37 2 c20 1 41 1 46 -1 25 -6 56 1 49 11 -3
6 -6 57 -5 114 2 73 -2 105 -10 111 -9 5 -576 14 -590 9z"/>
<path d="M5325 4911 c-5 -9 -4 -84 1 -102 3 -12 16 -16 47 -16 l42 1 0 -325
c0 -178 -1 -332 -4 -341 -2 -14 -14 -18 -50 -18 l-46 0 0 -63 0 -62 310 0 310
0 3 117 c3 107 1 117 -15 116 -10 0 -22 0 -28 2 -5 1 -27 2 -48 1 -37 -1 -38
-2 -36 -38 4 -81 4 -80 -53 -77 -29 1 -87 3 -129 3 l-76 1 0 135 c0 89 3 138
11 143 17 11 106 9 107 -3 1 -5 0 -26 -1 -46 -2 -41 4 -45 75 -44 l50 0 0 143
c1 78 -2 147 -6 154 -9 15 -87 14 -101 0 -7 -7 -12 -26 -13 -44 0 -24 -5 -32
-15 -29 -8 2 -35 3 -61 3 l-45 0 1 132 1 131 107 2 c58 0 110 4 115 7 16 10
22 -6 22 -64 l0 -57 64 0 64 0 -2 120 -1 120 -298 2 c-164 1 -300 -1 -302 -4z"/>
<path d="M7496 4913 c-2 -2 -16 -6 -31 -9 -38 -7 -94 -37 -128 -69 -47 -45
-70 -102 -70 -176 0 -119 61 -202 188 -253 138 -55 194 -86 214 -120 45 -73
14 -166 -65 -196 -26 -10 -191 -7 -202 4 -3 4 -6 30 -7 59 -1 28 -3 57 -3 63
-2 12 -105 14 -117 2 -4 -3 -7 -52 -8 -107 l-2 -101 40 -16 c111 -45 260 -51
358 -14 73 27 142 97 161 160 16 55 12 153 -8 202 -23 54 -102 122 -166 143
-5 2 -34 14 -125 55 -83 37 -116 70 -120 117 -3 46 15 85 52 111 21 15 45 20
98 20 39 0 81 -4 93 -9 22 -8 24 -14 20 -69 -2 -35 1 -60 7 -61 46 -4 112 -5
121 -2 8 3 12 39 11 108 l0 103 -41 19 c-22 10 -43 17 -46 16 -3 0 -13 3 -24
9 -18 10 -191 19 -200 11z"/>
<path d="M8169 4893 c-1 -2 -3 -7 -4 -13 -1 -5 -3 -11 -5 -12 -1 -2 -2 -23 -3
-48 l-1 -45 49 -5 50 -5 -2 -185 c-1 -102 -2 -253 -2 -337 l-1 -152 -47 -3
-48 -3 -1 -61 c-1 -38 3 -61 10 -61 67 -4 307 -4 313 0 5 3 9 32 8 64 l0 58
-48 -1 -47 -1 0 143 c0 108 3 144 13 145 63 5 373 -4 377 -11 4 -7 5 -202 1
-262 -1 -15 -9 -17 -45 -14 -27 2 -47 -1 -49 -8 -8 -22 0 -108 10 -114 9 -6
148 -7 294 -3 24 1 25 3 25 59 l-1 57 -46 5 -46 5 1 340 1 340 48 0 c26 0 47
3 48 7 0 5 1 28 1 53 0 25 -1 50 -1 55 -1 6 -63 10 -166 10 l-165 0 0 -60 c0
-59 1 -60 28 -61 73 -3 67 10 67 -139 l-1 -135 -137 0 c-75 0 -137 4 -137 8 0
4 -8 3 -18 -2 -11 -6 -24 -6 -34 0 -10 6 -19 6 -22 0 -3 -5 -15 -7 -26 -4 -18
5 -19 14 -19 139 l1 134 49 0 49 0 0 60 c0 33 -3 61 -7 61 -18 3 -313 4 -314
2z"/>
<path d="M9648 4885 c-60 -12 -124 -49 -170 -99 -58 -63 -116 -218 -113 -303
0 -18 -3 -33 -8 -33 -4 0 -5 -5 -2 -11 4 -5 8 -45 10 -87 9 -265 155 -429 370
-418 162 9 282 129 321 321 14 66 16 89 15 175 0 52 -2 102 -4 110 -2 8 -7 33
-11 55 -13 65 -75 182 -118 221 -77 69 -173 92 -290 69z m135 -128 c47 -9 125
-106 133 -167 1 -8 5 -31 8 -50 16 -102 5 -256 -22 -323 -7 -16 -12 -32 -12
-38 0 -11 -85 -99 -97 -100 -4 0 -17 -3 -28 -5 -40 -9 -94 -5 -122 9 -47 25
-98 90 -109 140 -3 12 -8 33 -12 47 -3 14 -6 84 -6 155 -1 161 17 228 73 284
51 51 105 64 194 48z"/>
<path d="M10430 4812 c0 -60 1 -63 23 -62 12 1 34 2 49 1 l27 -1 -2 -340 c-2
-295 -4 -340 -17 -341 -8 -1 -32 0 -52 1 -31 1 -38 -2 -39 -17 0 -10 -1 -37
-2 -60 -1 -24 3 -44 8 -46 6 -2 85 -4 178 -6 l167 -2 0 65 0 64 -50 -3 c-27
-2 -53 1 -56 6 -5 8 -8 147 -5 219 1 12 12 15 44 15 121 -2 237 45 284 116 76
115 61 312 -31 389 -64 54 -104 61 -343 64 l-183 2 0 -64z m382 -72 c47 -13
76 -53 81 -114 12 -127 -36 -183 -164 -193 l-69 -5 -1 63 c-1 35 0 69 1 74 1
6 2 49 2 98 l1 87 56 0 c31 0 73 -5 93 -10z"/>
<path d="M2 3465 l3 -90 905 -2 905 -2 -1 -28 c-1 -15 -9 -59 -17 -98 -25
-109 -27 -126 -28 -187 -1 -73 7 -96 42 -130 45 -44 141 -65 329 -74 321 -14
327 -14 397 -28 61 -12 129 -61 155 -111 41 -77 53 -150 63 -400 14 -312 38
-400 120 -439 41 -20 140 -18 225 4 67 17 72 19 115 30 22 6 47 13 55 15 8 2
31 9 50 14 19 5 69 19 110 31 41 11 104 22 140 24 191 11 269 -87 391 -494 13
-41 24 -80 25 -86 5 -30 63 -131 92 -161 59 -62 129 -73 227 -37 70 25 130 61
311 191 199 141 289 175 390 145 44 -13 128 -85 160 -137 22 -36 100 -139 131
-175 13 -14 23 -28 23 -31 0 -9 70 -88 140 -160 161 -163 276 -112 525 235 16
22 34 46 40 52 5 6 23 29 40 50 95 124 184 179 276 171 72 -6 130 -35 291
-145 71 -48 136 -92 145 -97 10 -6 44 -28 76 -48 148 -97 245 -102 322 -15 29
32 85 147 85 173 0 8 5 15 12 15 6 0 9 3 5 6 -3 4 1 23 10 43 16 37 113 308
117 326 12 60 97 149 159 167 81 24 204 11 310 -31 15 -6 38 -13 50 -15 12 -3
54 -17 92 -32 212 -80 357 -78 431 9 31 36 64 130 70 201 2 33 7 162 9 286 4
237 9 271 50 330 34 49 68 73 142 97 57 20 84 21 325 21 145 -1 274 2 288 5
121 27 179 99 174 217 -3 86 -12 141 -26 157 -6 7 -8 13 -5 13 3 0 -5 31 -17
68 l-23 68 1041 0 1041 -1 3 90 3 90 -5761 0 -5761 0 3 -90z m2591 -147 c24
-31 50 -63 58 -71 8 -8 30 -34 49 -57 19 -23 46 -54 58 -68 49 -56 213 -220
292 -292 45 -41 88 -81 96 -87 7 -7 17 -13 22 -13 6 0 12 -4 14 -9 2 -5 32
-32 68 -60 36 -28 70 -54 75 -59 105 -84 502 -332 531 -332 3 0 19 -9 35 -21
16 -11 37 -22 46 -24 10 -2 51 -20 91 -39 40 -20 75 -36 77 -36 3 0 24 -8 48
-19 23 -10 69 -29 102 -41 33 -12 68 -26 77 -31 10 -5 25 -9 33 -9 8 0 15 -5
15 -11 0 -5 4 -8 9 -5 4 3 48 -7 97 -23 102 -33 188 -58 224 -66 14 -2 48 -10
75 -15 28 -6 61 -13 75 -16 14 -3 33 -7 43 -10 10 -3 31 -7 48 -9 39 -5 100
-14 124 -19 18 -3 74 -11 165 -21 191 -23 627 -23 794 0 17 2 56 7 87 10 31 3
66 7 77 10 55 10 100 18 127 20 17 2 30 4 30 5 0 1 11 4 25 6 14 3 63 14 110
25 47 11 92 22 100 24 62 13 318 93 365 114 22 10 57 24 65 25 20 4 224 97
306 139 56 29 124 63 150 77 27 14 51 27 54 30 3 3 34 23 70 44 71 42 168 105
187 121 6 6 35 26 63 45 56 38 207 157 272 214 22 20 45 36 49 36 5 0 9 7 9
15 0 8 5 15 10 15 31 0 425 427 492 533 4 7 47 12 108 12 83 1 100 -1 95 -12
-5 -15 -136 -187 -180 -238 -15 -16 -50 -57 -78 -90 -68 -78 -286 -295 -366
-365 -36 -30 -83 -72 -105 -92 -23 -21 -44 -38 -48 -38 -4 0 -13 -6 -20 -13
-7 -7 -40 -33 -73 -57 -72 -54 -82 -61 -100 -78 -7 -6 -16 -12 -19 -12 -6 0
-98 -61 -106 -71 -7 -7 -190 -118 -265 -159 -33 -18 -75 -42 -93 -52 -18 -10
-39 -18 -46 -18 -8 0 -16 -4 -18 -8 -2 -7 -141 -75 -158 -78 -3 0 -30 -12 -60
-26 -109 -50 -429 -160 -509 -175 -13 -2 -28 -6 -33 -9 -4 -3 -18 -7 -30 -10
-35 -7 -57 -11 -133 -28 -126 -27 -285 -53 -380 -62 -160 -15 -237 -18 -440
-18 -276 1 -404 10 -627 44 -156 24 -168 26 -188 34 -8 3 -31 8 -50 11 -19 3
-53 10 -75 15 -22 6 -51 13 -65 16 -14 3 -56 14 -95 26 -38 11 -74 21 -80 23
-5 1 -17 4 -25 7 -52 19 -145 51 -154 52 -6 2 -29 10 -50 19 -21 10 -57 24
-80 31 -69 24 -115 45 -281 127 -195 97 -236 120 -388 217 -65 43 -126 82
-136 87 -9 6 -18 12 -21 15 -3 3 -57 44 -120 92 -63 48 -128 99 -145 113 -16
15 -57 50 -89 78 -79 68 -277 267 -346 347 -30 35 -59 68 -65 74 -8 9 -52 63
-98 121 -63 80 -115 153 -112 157 2 2 52 4 109 3 l105 0 44 -57z m5899 22
c-76 -100 -262 -295 -399 -417 -42 -37 -85 -76 -95 -85 -10 -10 -20 -18 -23
-18 -3 0 -13 -8 -23 -17 -98 -92 -530 -383 -570 -383 -6 0 -12 -4 -14 -8 -3
-6 -174 -95 -188 -97 -3 -1 -23 -10 -45 -22 -22 -11 -44 -22 -50 -23 -5 -1
-28 -9 -50 -19 -22 -10 -74 -30 -115 -45 -41 -15 -84 -32 -95 -36 -21 -9 -148
-49 -175 -55 -8 -1 -40 -10 -70 -19 -30 -9 -98 -25 -150 -36 -52 -12 -102 -22
-110 -24 -8 -2 -37 -7 -63 -10 -27 -4 -58 -9 -70 -12 -19 -3 -74 -10 -152 -19
-150 -18 -485 -26 -485 -12 0 6 -5 5 -12 -1 -7 -5 -26 -8 -43 -7 -16 2 -70 6
-120 9 -161 11 -223 18 -340 37 -87 15 -92 16 -180 34 -87 18 -91 19 -150 35
-22 6 -51 13 -65 16 -53 11 -332 105 -395 133 -11 5 -41 18 -67 30 -26 12 -50
21 -53 21 -7 0 -210 101 -290 145 -134 73 -376 231 -426 278 -11 9 -22 17 -25
17 -5 0 -63 45 -121 95 -6 5 -33 28 -60 50 -65 54 -326 315 -388 389 -28 32
-58 67 -67 77 -24 25 -23 27 10 31 15 2 1317 3 2894 3 l2867 0 -27 -35z"/>
</g>
</svg>
